<svg xmlns="http://www.w3.org/2000/svg" xmlns:xlink="http://www.w3.org/1999/xlink" contentStyleType="text/css" data-diagram-type="STATE" height="376px" preserveAspectRatio="none" style="width:1529px;height:376px;background:#FFFFFF;" version="1.1" viewBox="0 0 1529 376" width="1529px" zoomAndPan="magnify"><?plantuml 1.2026.5?><defs/><g><g class="start_entity" data-qualified-name=".start." data-source-line="3" id="ent0001"><ellipse cx="16" cy="318" fill="#222222" rx="10" ry="10" style="stroke:#222222;stroke-width:1;"/></g><g class="entity" data-qualified-name="Aberta" data-source-line="3" id="ent0002"><rect fill="#F1F1F1" height="50" rx="12.5" ry="12.5" style="stroke:#181818;stroke-width:0.5;" width="66.9014" x="229" y="293"/><line style="stroke:#181818;stroke-width:0.5;" x1="229" x2="295.9014" y1="319.2969" y2="319.2969"/><text fill="#000000" font-family="sans-serif" font-size="14" lengthAdjust="spacing" textLength="46.9014" x="239" y="310.9951">Aberta</text></g><g class="entity" data-qualified-name="EmValidacao" data-source-line="5" id="ent0004"><rect fill="#F1F1F1" height="50" rx="12.5" ry="12.5" style="stroke:#181818;stroke-width:0.5;" width="110.7266" x="534.9" y="250"/><line style="stroke:#181818;stroke-width:0.5;" x1="534.9" x2="645.6266" y1="276.2969" y2="276.2969"/><text fill="#000000" font-family="sans-serif" font-size="14" lengthAdjust="spacing" textLength="90.7266" x="544.9" y="267.9951">EmValidacao</text></g><g class="entity" data-qualified-name="EmAnalise" data-source-line="7" id="ent0006"><rect fill="#F1F1F1" height="50" rx="12.5" ry="12.5" style="stroke:#181818;stroke-width:0.5;" width="93.1992" x="841.63" y="148"/><line style="stroke:#181818;stroke-width:0.5;" x1="841.63" x2="934.8292" y1="174.2969" y2="174.2969"/><text fill="#000000" font-family="sans-serif" font-size="14" lengthAdjust="spacing" textLength="73.1992" x="851.63" y="165.9951">EmAnalise</text></g><g class="entity" data-qualified-name="Respondida" data-source-line="10" id="ent0009"><rect fill="#F1F1F1" height="50" rx="12.5" ry="12.5" style="stroke:#181818;stroke-width:0.5;" width="102.2021" x="1136.83" y="7"/><line style="stroke:#181818;stroke-width:0.5;" x1="1136.83" x2="1239.0321" y1="33.2969" y2="33.2969"/><text fill="#000000" font-family="sans-serif" font-size="14" lengthAdjust="spacing" textLength="82.2021" x="1146.83" y="24.9951">Respondida</text></g><g class="entity" data-qualified-name="Deferida" data-source-line="11" id="ent0011"><rect fill="#F1F1F1" height="50" rx="12.5" ry="12.5" style="stroke:#181818;stroke-width:0.5;" width="80.0469" x="1147.9" y="92"/><line style="stroke:#181818;stroke-width:0.5;" x1="1147.9" x2="1227.9469" y1="118.2969" y2="118.2969"/><text fill="#000000" font-family="sans-serif" font-size="14" lengthAdjust="spacing" textLength="60.0469" x="1157.9" y="109.9951">Deferida</text></g><g class="entity" data-qualified-name="Indeferida" data-source-line="12" id="ent0013"><rect fill="#F1F1F1" height="50" rx="12.5" ry="12.5" style="stroke:#181818;stroke-width:0.5;" width="91.1553" x="1142.35" y="177"/><line style="stroke:#181818;stroke-width:0.5;" x1="1142.35" x2="1233.5053" y1="203.2969" y2="203.2969"/><text fill="#000000" font-family="sans-serif" font-size="14" lengthAdjust="spacing" textLength="71.1553" x="1152.35" y="194.9951">Indeferida</text></g><g class="entity" data-qualified-name="Concluida" data-source-line="14" id="ent0015"><rect fill="#F1F1F1" height="50" rx="12.5" ry="12.5" style="stroke:#181818;stroke-width:0.5;" width="89.0293" x="1425.03" y="142"/><line style="stroke:#181818;stroke-width:0.5;" x1="1425.03" x2="1514.0593" y1="168.2969" y2="168.2969"/><text fill="#000000" font-family="sans-serif" font-size="14" lengthAdjust="spacing" textLength="69.0293" x="1435.03" y="159.9951">Concluida</text></g><g class="entity" data-qualified-name="Cancelada" data-source-line="18" id="ent0019"><rect fill="#F1F1F1" height="50" rx="12.5" ry="12.5" style="stroke:#181818;stroke-width:0.5;" width="93.4727" x="1141.19" y="262"/><line style="stroke:#181818;stroke-width:0.5;" x1="1141.19" x2="1234.6627" y1="288.2969" y2="288.2969"/><text fill="#000000" font-family="sans-serif" font-size="14" lengthAdjust="spacing" textLength="73.4727" x="1151.19" y="279.9951">Cancelada</text></g><!--link *start* to Aberta--><g class="link" data-entity-1="ent0001" data-entity-2="ent0002" data-link-type="dependency" data-source-line="3" id="lnk3"><path d="M26.28,318 C59.34,318 167.31,318 223.78,318" fill="none" id="*start*-to-Aberta" style="stroke:#181818;stroke-width:1;"/><polygon fill="#181818" points="228.78,318,219.78,314,223.78,318,219.78,322,228.78,318" style="stroke:#181818;stroke-width:1;stroke-linejoin:miter;stroke-miterlimit:10;"/><text fill="#000000" font-family="sans-serif" font-size="13" lengthAdjust="spacing" textLength="141.0576" x="57" y="314.0669">Solicita&#231;&#227;o registrada</text></g><!--link Aberta to EmValidacao--><g class="link" data-entity-1="ent0002" data-entity-2="ent0004" data-link-type="dependency" data-source-line="5" id="lnk5"><path d="M296.23,307.31 C305.72,304.56 316.15,301.85 325.9,300 C397.31,286.44 476.0772,280.3575 529.6372,277.4875" fill="none" id="Aberta-to-EmValidacao" style="stroke:#181818;stroke-width:1;"/><polygon fill="#181818" points="534.63,277.22,525.4289,273.7073,529.6372,277.4875,525.8569,281.6958,534.63,277.22" style="stroke:#181818;stroke-width:1;stroke-linejoin:miter;stroke-miterlimit:10;"/><text fill="#000000" font-family="sans-serif" font-size="13" lengthAdjust="spacing" textLength="177.5947" x="326.9" y="276.0669">Encaminhar para valida&#231;&#227;o</text></g><!--link EmValidacao to Aberta--><g class="link" data-entity-1="ent0004" data-entity-2="ent0002" data-link-type="dependency" data-source-line="8" id="lnk8"><path d="M555.87,300.41 C541.08,310.12 522.96,320.05 504.9,325 C432.51,344.84 348.2185,334.4089 301.1085,325.7989" fill="none" id="EmValidacao-to-Aberta" style="stroke:#181818;stroke-width:1;"/><polygon fill="#181818" points="296.19,324.9,304.3242,330.4529,301.1085,325.7989,305.7625,322.5832,296.19,324.9" style="stroke:#181818;stroke-width:1;stroke-linejoin:miter;stroke-miterlimit:10;"/><text fill="#000000" font-family="sans-serif" font-size="13" lengthAdjust="spacing" textLength="139.1089" x="345.9" y="321.0669">Documento recusado</text></g><!--link EmValidacao to EmAnalise--><g class="link" data-entity-1="ent0004" data-entity-2="ent0006" data-link-type="dependency" data-source-line="7" id="lnk7"><path d="M645.89,256.17 C702.01,236.83 783.6827,208.6786 836.4527,190.4986" fill="none" id="EmValidacao-to-EmAnalise" style="stroke:#181818;stroke-width:1;"/><polygon fill="#181818" points="841.18,188.87,831.3679,188.0197,836.4527,190.4986,833.9737,195.5834,841.18,188.87" style="stroke:#181818;stroke-width:1;stroke-linejoin:miter;stroke-miterlimit:10;"/><text fill="#000000" font-family="sans-serif" font-size="13" lengthAdjust="spacing" textLength="134.7417" x="676.63" y="197.0669">Documento validado</text></g><!--link EmAnalise to Respondida--><g class="link" data-entity-1="ent0006" data-entity-2="ent0009" data-link-type="dependency" data-source-line="10" id="lnk10"><path d="M912.78,147.59 C926.78,133.71 945.54,117.13 964.83,106 C1019.57,74.41 1084.889,55.0607 1131.559,43.8207" fill="none" id="EmAnalise-to-Respondida" style="stroke:#181818;stroke-width:1;"/><polygon fill="#181818" points="1136.42,42.65,1126.7336,40.8685,1131.559,43.8207,1128.6068,48.6461,1136.42,42.65" style="stroke:#181818;stroke-width:1;stroke-linejoin:miter;stroke-miterlimit:10;"/><text fill="#000000" font-family="sans-serif" font-size="13" lengthAdjust="spacing" textLength="102.959" x="984.83" y="47.0669">Parecer emitido</text></g><!--link EmAnalise to Deferida--><g class="link" data-entity-1="ent0006" data-entity-2="ent0011" data-link-type="dependency" data-source-line="11" id="lnk12"><path d="M935.13,162.31 C944.91,160.14 955.2,157.93 964.83,156 C1028.55,143.25 1098.0858,131.4385 1142.5758,124.1485" fill="none" id="EmAnalise-to-Deferida" style="stroke:#181818;stroke-width:1;"/><polygon fill="#181818" points="1147.51,123.34,1137.9816,120.8479,1142.5758,124.1485,1139.2752,128.7427,1147.51,123.34" style="stroke:#181818;stroke-width:1;stroke-linejoin:miter;stroke-miterlimit:10;"/><text fill="#000000" font-family="sans-serif" font-size="13" lengthAdjust="spacing" textLength="128.4512" x="971.83" y="127.0669">Solicita&#231;&#227;o deferida</text></g><!--link EmAnalise to Indeferida--><g class="link" data-entity-1="ent0006" data-entity-2="ent0013" data-link-type="dependency" data-source-line="12" id="lnk14"><path d="M935.09,177.47 C991.36,182.95 1081.1636,191.6953 1137.0136,197.1353" fill="none" id="EmAnalise-to-Indeferida" style="stroke:#181818;stroke-width:1;"/><polygon fill="#181818" points="1141.99,197.62,1133.4202,192.7663,1137.0136,197.1353,1132.6446,200.7287,1141.99,197.62" style="stroke:#181818;stroke-width:1;stroke-linejoin:miter;stroke-miterlimit:10;"/><text fill="#000000" font-family="sans-serif" font-size="13" lengthAdjust="spacing" textLength="140.3022" x="965.83" y="177.0669">Solicita&#231;&#227;o indeferida</text></g><!--link Respondida to Concluida--><g class="link" data-entity-1="ent0009" data-entity-2="ent0015" data-link-type="dependency" data-source-line="14" id="lnk16"><path d="M1239.27,45.16 C1282.32,57.6 1345.04,78.59 1395.03,107 C1411.79,116.52 1424.8245,126.5691 1438.1245,138.2591" fill="none" id="Respondida-to-Concluida" style="stroke:#181818;stroke-width:1;"/><polygon fill="#181818" points="1441.88,141.56,1437.7608,132.6139,1438.1245,138.2591,1432.4793,138.6228,1441.88,141.56" style="stroke:#181818;stroke-width:1;stroke-linejoin:miter;stroke-miterlimit:10;"/><text fill="#000000" font-family="sans-serif" font-size="13" lengthAdjust="spacing" textLength="124.5283" x="1270.03" y="51.0669">Processo finalizado</text></g><!--link Deferida to Concluida--><g class="link" data-entity-1="ent0011" data-entity-2="ent0015" data-link-type="dependency" data-source-line="15" id="lnk17"><path d="M1228.4,124.06 C1280.18,133.32 1365.868,148.6403 1419.748,158.2703" fill="none" id="Deferida-to-Concluida" style="stroke:#181818;stroke-width:1;"/><polygon fill="#181818" points="1424.67,159.15,1416.5142,153.6289,1419.748,158.2703,1415.1066,161.5041,1424.67,159.15" style="stroke:#181818;stroke-width:1;stroke-linejoin:miter;stroke-miterlimit:10;"/><text fill="#000000" font-family="sans-serif" font-size="13" lengthAdjust="spacing" textLength="124.5283" x="1270.03" y="128.0669">Processo finalizado</text></g><!--link Indeferida to Concluida--><g class="link" data-entity-1="ent0013" data-entity-2="ent0015" data-link-type="dependency" data-source-line="16" id="lnk18"><path d="M1233.78,199.9 C1275.67,197.5 1339.87,192.74 1395.03,184 C1404.73,182.46 1410.1815,181.4558 1419.9315,179.2658" fill="none" id="Indeferida-to-Concluida" style="stroke:#181818;stroke-width:1;"/><polygon fill="#181818" points="1424.81,178.17,1415.1522,176.2396,1419.9315,179.2658,1416.9054,184.0452,1424.81,178.17" style="stroke:#181818;stroke-width:1;stroke-linejoin:miter;stroke-miterlimit:10;"/><text fill="#000000" font-family="sans-serif" font-size="13" lengthAdjust="spacing" textLength="124.5283" x="1270.03" y="180.0669">Processo finalizado</text></g><!--link Aberta to Cancelada--><g class="link" data-entity-1="ent0002" data-entity-2="ent0019" data-link-type="dependency" data-source-line="18" id="lnk20"><path d="M296.33,335.18 C305.64,339.22 315.95,342.94 325.9,345 C403.81,361.12 425.42,348.36 504.9,345 C744.73,334.86 1025.751,305.1662 1135.731,292.8562" fill="none" id="Aberta-to-Cancelada" style="stroke:#181818;stroke-width:1;"/><polygon fill="#181818" points="1140.7,292.3,1131.3109,289.3259,1135.731,292.8562,1132.2008,297.2763,1140.7,292.3" style="stroke:#181818;stroke-width:1;stroke-linejoin:miter;stroke-miterlimit:10;"/><text fill="#000000" font-family="sans-serif" font-size="13" lengthAdjust="spacing" textLength="91.146" x="698.13" y="322.0669">Aluno cancela</text></g><!--link EmValidacao to Cancelada--><g class="link" data-entity-1="ent0004" data-entity-2="ent0019" data-link-type="dependency" data-source-line="19" id="lnk21"><path d="M645.97,276.1 C762.31,278.44 1027.471,283.7894 1135.791,285.9694" fill="none" id="EmValidacao-to-Cancelada" style="stroke:#181818;stroke-width:1;"/><polygon fill="#181818" points="1140.79,286.07,1131.8723,281.8897,1135.791,285.9694,1131.7113,289.8881,1140.79,286.07" style="stroke:#181818;stroke-width:1;stroke-linejoin:miter;stroke-miterlimit:10;"/><text fill="#000000" font-family="sans-serif" font-size="13" lengthAdjust="spacing" textLength="91.146" x="842.73" y="277.0669">Aluno cancela</text></g><!--link EmAnalise to Cancelada--><g class="link" data-entity-1="ent0006" data-entity-2="ent0019" data-link-type="dependency" data-source-line="20" id="lnk22"><path d="M926.68,198.32 C938.54,205.64 951.93,213.21 964.83,219 C1023.51,245.34 1090.425,264.0548 1136.205,275.3248" fill="none" id="EmAnalise-to-Cancelada" style="stroke:#181818;stroke-width:1;"/><polygon fill="#181818" points="1141.06,276.52,1133.2771,270.4846,1136.205,275.3248,1131.3648,278.2527,1141.06,276.52" style="stroke:#181818;stroke-width:1;stroke-linejoin:miter;stroke-miterlimit:10;"/><text fill="#000000" font-family="sans-serif" font-size="13" lengthAdjust="spacing" textLength="91.146" x="990.33" y="215.0669">Aluno cancela</text></g><!--link Cancelada to Concluida--><g class="link" data-entity-1="ent0019" data-entity-2="ent0015" data-link-type="dependency" data-source-line="22" id="lnk23"><path d="M1234.92,277.59 C1277.91,267.69 1343.08,249.78 1395.03,223 C1411,214.76 1423.1954,206.1804 1436.2154,195.5604" fill="none" id="Cancelada-to-Concluida" style="stroke:#181818;stroke-width:1;"/><polygon fill="#181818" points="1440.09,192.4,1430.5875,194.989,1436.2154,195.5604,1435.6441,201.1883,1440.09,192.4" style="stroke:#181818;stroke-width:1;stroke-linejoin:miter;stroke-miterlimit:10;"/><text fill="#000000" font-family="sans-serif" font-size="13" lengthAdjust="spacing" textLength="124.5283" x="1270.03" y="219.0669">Processo finalizado</text></g><?plantuml-src ZT6nJiCm40RW_PxYPgI-00DIr7PWGo2nL0o7VMbFSdoLxJ3mEWmyI5yCEuaIGrMKrVVzfz-supPXKWnoF2Mq4jWaKGzmk7l3pUO1ctSEYV0UNzI9aKINxyjNzdoKc09P0fX8qVlkbPnOCgGvilU6El4d2dYcGFWnp8O503KTeutF1v5pSAUcxzZdNcF4wXMVUoqsT-zZiR3iAlIPurczpU7CdoWp3iYT91dsrdJ7BOSH_hwldGP__AEtjn8oZm2g1YMrLMzSF_K9QZX6nLRAti_IVswn1bSLrl3wjxRa3JiQREDwhsZ6awlN_a_Mxt7RmJ9QKVC7?></g></svg>