<svg xmlns="http://www.w3.org/2000/svg" xmlns:xlink="http://www.w3.org/1999/xlink" contentStyleType="text/css" data-diagram-type="DESCRIPTION" height="917px" preserveAspectRatio="none" style="width:1202px;height:917px;background:#FFFFFF;" version="1.1" viewBox="0 0 1202 917" width="1202px" zoomAndPan="magnify"><?plantuml 1.2026.7beta1?><defs/><g><g class="title" data-source-line="1"><text fill="#000000" font-family="sans-serif" font-size="14" font-weight="700" lengthAdjust="spacing" textLength="503.7813" x="346.0144" y="22.9951">Diagrama de Implanta&#231;&#227;o - Sistema de Atendimento Acad&#234;mico</text></g><!--cluster Dispositivo do Usu?rio--><g class="cluster" data-qualified-name="Dispositivo do Usu.rio" data-source-line="5" id="ent0001"><polygon fill="none" points="502,53.2969,512,43.2969,794,43.2969,794,281.4869,784,291.4869,502,291.4869,502,53.2969" style="stroke:#181818;stroke-width:1;stroke-linejoin:miter;stroke-miterlimit:10;"/><line style="stroke:#181818;stroke-width:1;" x1="784" x2="794" y1="53.2969" y2="43.2969"/><line style="stroke:#181818;stroke-width:1;" x1="502" x2="784" y1="53.2969" y2="53.2969"/><line style="stroke:#181818;stroke-width:1;" x1="784" x2="784" y1="53.2969" y2="291.4869"/><text fill="#000000" font-family="sans-serif" font-size="14" font-style="italic" lengthAdjust="spacing" textLength="63.1162" x="612.4419" y="69.292">&#171;device&#187;</text><text fill="#000000" font-family="sans-serif" font-size="14" font-weight="700" lengthAdjust="spacing" textLength="177.584" x="555.208" y="85.5889">Dispositivo do Usu&#225;rio</text></g><!--cluster Navegador Web--><g class="cluster" data-qualified-name="Dispositivo do Usu.rio.Navegador Web" data-source-line="6" id="ent0002"><polygon fill="none" points="526,117.2969,536,107.2969,770,107.2969,770,257.4869,760,267.4869,526,267.4869,526,117.2969" style="stroke:#181818;stroke-width:1;stroke-linejoin:miter;stroke-miterlimit:10;"/><line style="stroke:#181818;stroke-width:1;" x1="760" x2="770" y1="117.2969" y2="107.2969"/><line style="stroke:#181818;stroke-width:1;" x1="526" x2="760" y1="117.2969" y2="117.2969"/><line style="stroke:#181818;stroke-width:1;" x1="760" x2="760" y1="117.2969" y2="267.4869"/><text fill="#000000" font-family="sans-serif" font-size="14" font-style="italic" lengthAdjust="spacing" textLength="166.8584" x="560.5708" y="133.292">&#171;executionEnviroment&#187;</text><text fill="#000000" font-family="sans-serif" font-size="14" font-weight="700" lengthAdjust="spacing" textLength="125.6309" x="581.1846" y="149.5889">Navegador Web</text></g><!--cluster Servidor de Aplica??o--><g class="cluster" data-qualified-name="Servidor de Aplica..o" data-source-line="11" id="ent0004"><polygon fill="none" points="204,350.4869,214,340.4869,1118,340.4869,1118,565.3769,1108,575.3769,204,575.3769,204,350.4869" style="stroke:#181818;stroke-width:1;stroke-linejoin:miter;stroke-miterlimit:10;"/><line style="stroke:#181818;stroke-width:1;" x1="1108" x2="1118" y1="350.4869" y2="340.4869"/><line style="stroke:#181818;stroke-width:1;" x1="204" x2="1108" y1="350.4869" y2="350.4869"/><line style="stroke:#181818;stroke-width:1;" x1="1108" x2="1108" y1="350.4869" y2="575.3769"/><text fill="#000000" font-family="sans-serif" font-size="14" font-style="italic" lengthAdjust="spacing" textLength="61.4482" x="626.2759" y="366.482">&#171;server&#187;</text><text fill="#000000" font-family="sans-serif" font-size="14" font-weight="700" lengthAdjust="spacing" textLength="171.7803" x="571.1099" y="382.7789">Servidor de Aplica&#231;&#227;o</text></g><!--cluster Banco de Dados--><g class="cluster" data-qualified-name="Banco de Dados" data-source-line="25" id="ent0011"><path d="M6,642.3769 C6,632.3769 236,632.3769 236,632.3769 C236,632.3769 466,632.3769 466,642.3769 L466,874.9669 C466,884.9669 236,884.9669 236,884.9669 C236,884.9669 6,884.9669 6,874.9669 L6,642.3769" fill="none" style="stroke:#181818;stroke-width:1;"/><path d="M6,642.3769 C6,652.3769 236,652.3769 236,652.3769 C236,652.3769 466,652.3769 466,642.3769" fill="none" style="stroke:#181818;stroke-width:1;"/><text fill="#000000" font-family="sans-serif" font-size="14" font-style="italic" lengthAdjust="spacing" textLength="82.0381" x="194.981" y="667.372">&#171;database&#187;</text><text fill="#000000" font-family="sans-serif" font-size="14" font-weight="700" lengthAdjust="spacing" textLength="126.3076" x="172.8462" y="683.6689">Banco de Dados</text></g><!--cluster Servidor de Arquivos--><g class="cluster" data-qualified-name="Servidor de Arquivos" data-source-line="35" id="ent0018"><polygon fill="none" points="506,644.8769,516,634.8769,854,634.8769,854,882.4669,844,892.4669,506,892.4669,506,644.8769" style="stroke:#181818;stroke-width:1;stroke-linejoin:miter;stroke-miterlimit:10;"/><line style="stroke:#181818;stroke-width:1;" x1="844" x2="854" y1="644.8769" y2="634.8769"/><line style="stroke:#181818;stroke-width:1;" x1="506" x2="844" y1="644.8769" y2="644.8769"/><line style="stroke:#181818;stroke-width:1;" x1="844" x2="844" y1="644.8769" y2="892.4669"/><text fill="#000000" font-family="sans-serif" font-size="14" font-style="italic" lengthAdjust="spacing" textLength="61.4482" x="645.2759" y="660.872">&#171;server&#187;</text><text fill="#000000" font-family="sans-serif" font-size="14" font-weight="700" lengthAdjust="spacing" textLength="165.8193" x="593.0903" y="677.1689">Servidor de Arquivos</text></g><!--cluster Servi?o Externo--><g class="cluster" data-qualified-name="Servi.o Externo" data-source-line="42" id="ent0022"><path d="M943.6752,681.2056 C948.0563,673.6035 952.6553,673.9726 958.6264,679.378 C964.5504,670.8716 970.6158,670.7936 975.5438,680.3127 C979.7879,673.2842 986.7604,672.4777 991.5163,679.7406 C995.8091,669.4046 1001.1086,668.9502 1008.6899,676.6007 C1014.343,669.4886 1020.2451,670.2118 1024.3803,678.1799 C1028.3989,668.9242 1033.8752,669.7246 1040.0939,675.9464 C1045.1377,667.5944 1052.5798,665.8631 1058.4726,675.0571 C1063.4188,667.3904 1069.0666,667.6426 1074.2052,674.8537 C1079.4571,667.2403 1086.504,667.1267 1090.3976,676.1739 C1095.9898,669.6858 1102.0265,669.1135 1106.8255,677.0757 C1113.3567,671.005 1118.4217,672.5422 1122.5147,679.9202 C1126.0959,671.6316 1132.2747,672.1472 1137.5786,678.0976 C1144.1903,670.9077 1150.0603,671.3428 1155.7336,679.2276 C1159.5332,672.4079 1166.2131,672.1377 1169.5439,679.6784 C1182.5042,682.771 1182.4362,691.4392 1175.3885,700.2235 C1183.7066,703.6767 1185.4799,711.0661 1179.1292,717.6653 C1187.8101,727.0419 1183.4484,732.4961 1173.7893,736.7379 C1181.278,744.7223 1179.1571,752.4714 1169.043,756.1524 C1165.2957,762.3616 1158.8553,762.7122 1155.0503,756.2159 C1150.1234,765.7169 1143.4197,764.8045 1137.7867,756.9169 C1134.9269,765.089 1128.1405,765.2311 1123.1251,759.1314 C1117.5248,765.6794 1110.4591,766.3938 1105.9984,757.8392 C1102.8228,767.205 1095.7551,768.1655 1089.9059,760.3423 C1086.4761,767.2909 1079.3451,767.6271 1074.694,761.796 C1068.3105,770.2616 1062.6023,769.3346 1057.8068,760.2666 C1053.579,768.9292 1044.768,770.6182 1039.3338,761.5215 C1034.4713,766.6707 1027.6854,767.4017 1025.2681,758.9859 C1021.3868,767.9561 1013.1402,768.9773 1007.9212,760.3009 C1001.7824,767.1086 996.4796,763.9975 993.4688,757.0212 C987.5985,764.0931 981.9805,765.735 976.768,756.3535 C971.3368,766.2701 964.425,765.8351 958.3192,757.0178 C953.2156,763.2297 946.0804,762.8861 942.6716,755.1205 C932.1412,751.1867 932.836,742.1299 940.7406,736.3043 C930.0375,734.1677 926.4528,724.7413 935.0816,716.9518 C927.2804,709.1395 930.2522,704.0476 938.9167,699.9492 C932.6092,692.0614 933.2225,684.8384 943.6752,681.2056" fill="none" style="stroke:#181818;stroke-width:1;"/><text fill="#000000" font-family="sans-serif" font-size="14" font-weight="700" lengthAdjust="spacing" textLength="124.4688" x="993.2656" y="697.372">Servi&#231;o Externo</text></g><!--entity Frontend--><g class="entity" data-qualified-name="Dispositivo do Usu.rio.Navegador Web.Frontend" data-source-line="7" id="ent0003"><rect fill="#F1F1F1" height="88.1875" rx="2.5" ry="2.5" style="stroke:#181818;stroke-width:0.5;" width="212.1162" x="541.94" y="163.2969"/><polygon fill="#F1F1F1" points="737.0562,168.2969,737.0562,182.2969,749.0562,182.2969,749.0562,174.2969,743.0562,168.2969,737.0562,168.2969" style="stroke:#181818;stroke-width:0.5;stroke-linejoin:miter;stroke-miterlimit:10;"/><line style="stroke:#181818;stroke-width:0.5;" x1="743.0562" x2="743.0562" y1="168.2969" y2="174.2969"/><line style="stroke:#181818;stroke-width:0.5;" x1="749.0562" x2="743.0562" y1="174.2969" y2="174.2969"/><text fill="#000000" font-family="sans-serif" font-size="14" lengthAdjust="spacing" textLength="145.4209" x="551.94" y="189.292">Interface do Sistema</text><text fill="#000000" font-family="sans-serif" font-size="14" lengthAdjust="spacing" textLength="123.8057" x="551.94" y="205.5889">(Aluno, Professor,</text><text fill="#000000" font-family="sans-serif" font-size="14" lengthAdjust="spacing" textLength="177.666" x="551.94" y="221.8857">Secretaria, Coordena&#231;&#227;o,</text><text fill="#000000" font-family="sans-serif" font-size="14" lengthAdjust="spacing" textLength="113.1553" x="551.94" y="238.1826">Administerador)</text></g><!--entity API--><g class="entity" data-qualified-name="Servidor de Aplica..o.API" data-source-line="12" id="ent0005"><rect fill="#F1F1F1" height="39.2969" rx="2.5" ry="2.5" style="stroke:#181818;stroke-width:0.5;" width="92.6104" x="601.69" y="396.4869"/><polygon fill="#F1F1F1" points="677.3004,401.4869,677.3004,415.4869,689.3004,415.4869,689.3004,407.4869,683.3004,401.4869,677.3004,401.4869" style="stroke:#181818;stroke-width:0.5;stroke-linejoin:miter;stroke-miterlimit:10;"/><line style="stroke:#181818;stroke-width:0.5;" x1="683.3004" x2="683.3004" y1="401.4869" y2="407.4869"/><line style="stroke:#181818;stroke-width:0.5;" x1="689.3004" x2="683.3004" y1="407.4869" y2="407.4869"/><text fill="#000000" font-family="sans-serif" font-size="14" lengthAdjust="spacing" textLength="62.6104" x="611.69" y="422.482">API REST</text></g><!--entity Auth--><g class="entity" data-qualified-name="Servidor de Aplica..o.Auth" data-source-line="14" id="ent0006"><rect fill="#F1F1F1" height="46.2969" rx="2.5" ry="2.5" style="stroke:#181818;stroke-width:0.5;" width="131.9229" x="220.04" y="504.9269"/><rect fill="#F1F1F1" height="10" style="stroke:#181818;stroke-width:0.5;" width="15" x="331.9629" y="509.9269"/><rect fill="#F1F1F1" height="2" style="stroke:#181818;stroke-width:0.5;" width="4" x="329.9629" y="511.9269"/><rect fill="#F1F1F1" height="2" style="stroke:#181818;stroke-width:0.5;" width="4" x="329.9629" y="515.9269"/><text fill="#000000" font-family="sans-serif" font-size="14" lengthAdjust="spacing" textLength="91.9229" x="235.04" y="537.922">Autentica&#231;&#227;o</text></g><!--entity Solic--><g class="entity" data-qualified-name="Servidor de Aplica..o.Solic" data-source-line="16" id="ent0007"><rect fill="#F1F1F1" height="62.5938" rx="2.5" ry="2.5" style="stroke:#181818;stroke-width:0.5;" width="149.457" x="387.27" y="496.7769"/><rect fill="#F1F1F1" height="10" style="stroke:#181818;stroke-width:0.5;" width="15" x="516.727" y="501.7769"/><rect fill="#F1F1F1" height="2" style="stroke:#181818;stroke-width:0.5;" width="4" x="514.727" y="503.7769"/><rect fill="#F1F1F1" height="2" style="stroke:#181818;stroke-width:0.5;" width="4" x="514.727" y="507.7769"/><text fill="#000000" font-family="sans-serif" font-size="14" lengthAdjust="spacing" textLength="108.0488" x="402.27" y="529.772">Gerenciamento</text><text fill="#000000" font-family="sans-serif" font-size="14" lengthAdjust="spacing" textLength="105.0068" x="406.7202" y="546.0689">de Solicita&#231;&#245;es</text></g><!--entity Docs--><g class="entity" data-qualified-name="Servidor de Aplica..o.Docs" data-source-line="18" id="ent0008"><rect fill="#F1F1F1" height="62.5938" rx="2.5" ry="2.5" style="stroke:#181818;stroke-width:0.5;" width="154.7891" x="759.61" y="496.7769"/><rect fill="#F1F1F1" height="10" style="stroke:#181818;stroke-width:0.5;" width="15" x="894.3991" y="501.7769"/><rect fill="#F1F1F1" height="2" style="stroke:#181818;stroke-width:0.5;" width="4" x="892.3991" y="503.7769"/><rect fill="#F1F1F1" height="2" style="stroke:#181818;stroke-width:0.5;" width="4" x="892.3991" y="507.7769"/><text fill="#000000" font-family="sans-serif" font-size="14" lengthAdjust="spacing" textLength="108.0488" x="774.61" y="529.772">Gerenciamento</text><text fill="#000000" font-family="sans-serif" font-size="14" lengthAdjust="spacing" textLength="110.3389" x="779.0602" y="546.0689">de Documentos</text></g><!--entity Notif--><g class="entity" data-qualified-name="Servidor de Aplica..o.Notif" data-source-line="20" id="ent0009"><rect fill="#F1F1F1" height="62.5938" rx="2.5" ry="2.5" style="stroke:#181818;stroke-width:0.5;" width="152.499" x="949.75" y="496.7769"/><rect fill="#F1F1F1" height="10" style="stroke:#181818;stroke-width:0.5;" width="15" x="1082.249" y="501.7769"/><rect fill="#F1F1F1" height="2" style="stroke:#181818;stroke-width:0.5;" width="4" x="1080.249" y="503.7769"/><rect fill="#F1F1F1" height="2" style="stroke:#181818;stroke-width:0.5;" width="4" x="1080.249" y="507.7769"/><text fill="#000000" font-family="sans-serif" font-size="14" lengthAdjust="spacing" textLength="108.0488" x="964.75" y="529.772">Gerenciamento</text><text fill="#000000" font-family="sans-serif" font-size="14" lengthAdjust="spacing" textLength="100.3037" x="969.2002" y="546.0689">de Notifica&#231;&#227;o</text></g><!--entity Rel--><g class="entity" data-qualified-name="Servidor de Aplica..o.Rel" data-source-line="22" id="ent0010"><rect fill="#F1F1F1" height="62.5938" rx="2.5" ry="2.5" style="stroke:#181818;stroke-width:0.5;" width="152.499" x="571.75" y="496.7769"/><rect fill="#F1F1F1" height="10" style="stroke:#181818;stroke-width:0.5;" width="15" x="704.249" y="501.7769"/><rect fill="#F1F1F1" height="2" style="stroke:#181818;stroke-width:0.5;" width="4" x="702.249" y="503.7769"/><rect fill="#F1F1F1" height="2" style="stroke:#181818;stroke-width:0.5;" width="4" x="702.249" y="507.7769"/><text fill="#000000" font-family="sans-serif" font-size="14" lengthAdjust="spacing" textLength="108.0488" x="586.75" y="529.772">Gerenciamento</text><text fill="#000000" font-family="sans-serif" font-size="14" lengthAdjust="spacing" textLength="92.3193" x="591.2002" y="546.0689">de Relatorios</text></g><!--entity Usu?rios--><g class="entity" data-qualified-name="Banco de Dados.Usu.rios" data-source-line="27" id="ent0012"><rect fill="#F1F1F1" height="39.2969" rx="2.5" ry="2.5" style="stroke:#181818;stroke-width:0.5;" width="90.498" x="29.75" y="706.3769"/><polygon fill="#F1F1F1" points="103.248,711.3769,103.248,725.3769,115.248,725.3769,115.248,717.3769,109.248,711.3769,103.248,711.3769" style="stroke:#181818;stroke-width:0.5;stroke-linejoin:miter;stroke-miterlimit:10;"/><line style="stroke:#181818;stroke-width:0.5;" x1="109.248" x2="109.248" y1="711.3769" y2="717.3769"/><line style="stroke:#181818;stroke-width:0.5;" x1="115.248" x2="109.248" y1="717.3769" y2="717.3769"/><text fill="#000000" font-family="sans-serif" font-size="14" lengthAdjust="spacing" textLength="60.498" x="39.75" y="732.372">Usu&#225;rios</text></g><!--entity Solicita??es--><g class="entity" data-qualified-name="Banco de Dados.Solicita..es" data-source-line="28" id="ent0013"><rect fill="#F1F1F1" height="39.2969" rx="2.5" ry="2.5" style="stroke:#181818;stroke-width:0.5;" width="113.0566" x="155.47" y="706.3769"/><polygon fill="#F1F1F1" points="251.5266,711.3769,251.5266,725.3769,263.5266,725.3769,263.5266,717.3769,257.5266,711.3769,251.5266,711.3769" style="stroke:#181818;stroke-width:0.5;stroke-linejoin:miter;stroke-miterlimit:10;"/><line style="stroke:#181818;stroke-width:0.5;" x1="257.5266" x2="257.5266" y1="711.3769" y2="717.3769"/><line style="stroke:#181818;stroke-width:0.5;" x1="263.5266" x2="257.5266" y1="717.3769" y2="717.3769"/><text fill="#000000" font-family="sans-serif" font-size="14" lengthAdjust="spacing" textLength="83.0566" x="165.47" y="732.372">Solicita&#231;&#245;es</text></g><!--entity Documentos--><g class="entity" data-qualified-name="Banco de Dados.Documentos" data-source-line="29" id="ent0014"><rect fill="#F1F1F1" height="39.2969" rx="2.5" ry="2.5" style="stroke:#181818;stroke-width:0.5;" width="118.3887" x="303.81" y="706.3769"/><polygon fill="#F1F1F1" points="405.1987,711.3769,405.1987,725.3769,417.1987,725.3769,417.1987,717.3769,411.1987,711.3769,405.1987,711.3769" style="stroke:#181818;stroke-width:0.5;stroke-linejoin:miter;stroke-miterlimit:10;"/><line style="stroke:#181818;stroke-width:0.5;" x1="411.1987" x2="411.1987" y1="711.3769" y2="717.3769"/><line style="stroke:#181818;stroke-width:0.5;" x1="417.1987" x2="411.1987" y1="717.3769" y2="717.3769"/><text fill="#000000" font-family="sans-serif" font-size="14" lengthAdjust="spacing" textLength="88.3887" x="313.81" y="732.372">Documentos</text></g><!--entity Pareceres--><g class="entity" data-qualified-name="Banco de Dados.Pareceres" data-source-line="30" id="ent0015"><rect fill="#F1F1F1" height="39.2969" rx="2.5" ry="2.5" style="stroke:#181818;stroke-width:0.5;" width="99.3643" x="30.32" y="821.6669"/><polygon fill="#F1F1F1" points="112.6843,826.6669,112.6843,840.6669,124.6843,840.6669,124.6843,832.6669,118.6843,826.6669,112.6843,826.6669" style="stroke:#181818;stroke-width:0.5;stroke-linejoin:miter;stroke-miterlimit:10;"/><line style="stroke:#181818;stroke-width:0.5;" x1="118.6843" x2="118.6843" y1="826.6669" y2="832.6669"/><line style="stroke:#181818;stroke-width:0.5;" x1="124.6843" x2="118.6843" y1="832.6669" y2="832.6669"/><text fill="#000000" font-family="sans-serif" font-size="14" lengthAdjust="spacing" textLength="69.3643" x="40.32" y="847.662">Pareceres</text></g><!--entity Hist?rico--><g class="entity" data-qualified-name="Banco de Dados.Hist.rico" data-source-line="31" id="ent0016"><rect fill="#F1F1F1" height="39.2969" rx="2.5" ry="2.5" style="stroke:#181818;stroke-width:0.5;" width="91.6738" x="165.16" y="821.6669"/><polygon fill="#F1F1F1" points="239.8338,826.6669,239.8338,840.6669,251.8338,840.6669,251.8338,832.6669,245.8338,826.6669,239.8338,826.6669" style="stroke:#181818;stroke-width:0.5;stroke-linejoin:miter;stroke-miterlimit:10;"/><line style="stroke:#181818;stroke-width:0.5;" x1="245.8338" x2="245.8338" y1="826.6669" y2="832.6669"/><line style="stroke:#181818;stroke-width:0.5;" x1="251.8338" x2="245.8338" y1="832.6669" y2="832.6669"/><text fill="#000000" font-family="sans-serif" font-size="14" lengthAdjust="spacing" textLength="61.6738" x="175.16" y="847.662">Hist&#243;rico</text></g><!--entity Notifica??es--><g class="entity" data-qualified-name="Banco de Dados.Notifica..es" data-source-line="32" id="ent0017"><rect fill="#F1F1F1" height="39.2969" rx="2.5" ry="2.5" style="stroke:#181818;stroke-width:0.5;" width="115.6816" x="292.16" y="821.6669"/><polygon fill="#F1F1F1" points="390.8416,826.6669,390.8416,840.6669,402.8416,840.6669,402.8416,832.6669,396.8416,826.6669,390.8416,826.6669" style="stroke:#181818;stroke-width:0.5;stroke-linejoin:miter;stroke-miterlimit:10;"/><line style="stroke:#181818;stroke-width:0.5;" x1="396.8416" x2="396.8416" y1="826.6669" y2="832.6669"/><line style="stroke:#181818;stroke-width:0.5;" x1="402.8416" x2="396.8416" y1="832.6669" y2="832.6669"/><text fill="#000000" font-family="sans-serif" font-size="14" lengthAdjust="spacing" textLength="85.6816" x="302.16" y="847.662">Notifica&#231;&#245;es</text></g><!--entity Anexos PDF--><g class="entity" data-qualified-name="Servidor de Arquivos.Anexos PDF" data-source-line="37" id="ent0019"><path d="M532.03,698.8769 L573.03,698.8769 A3.75,3.75 0 0 1 575.53,701.3769 L582.53,719.8769 L639.9636,719.8769 A2.5,2.5 0 0 1 642.4636,722.3769 L642.4636,750.6737 A2.5,2.5 0 0 1 639.9636,753.1737 L532.03,753.1737 A2.5,2.5 0 0 1 529.53,750.6737 L529.53,701.3769 A2.5,2.5 0 0 1 532.03,698.8769" fill="#F1F1F1" style="stroke:#181818;stroke-width:0.5;"/><line style="stroke:#181818;stroke-width:0.5;" x1="529.53" x2="582.53" y1="719.8769" y2="719.8769"/><text fill="#000000" font-family="sans-serif" font-size="14" lengthAdjust="spacing" textLength="82.9336" x="539.53" y="739.872">Anexos PDF</text></g><!--entity Comprovantes--><g class="entity" data-qualified-name="Servidor de Arquivos.Comprovantes" data-source-line="38" id="ent0020"><path d="M680.34,698.8769 L721.34,698.8769 A3.75,3.75 0 0 1 723.84,701.3769 L730.84,719.8769 L807.6603,719.8769 A2.5,2.5 0 0 1 810.1603,722.3769 L810.1603,750.6737 A2.5,2.5 0 0 1 807.6603,753.1737 L680.34,753.1737 A2.5,2.5 0 0 1 677.84,750.6737 L677.84,701.3769 A2.5,2.5 0 0 1 680.34,698.8769" fill="#F1F1F1" style="stroke:#181818;stroke-width:0.5;"/><line style="stroke:#181818;stroke-width:0.5;" x1="677.84" x2="730.84" y1="719.8769" y2="719.8769"/><text fill="#000000" font-family="sans-serif" font-size="14" lengthAdjust="spacing" textLength="102.3203" x="687.84" y="739.872">Comprovantes</text></g><!--entity Documentos Acad?micos--><g class="entity" data-qualified-name="Servidor de Arquivos.Documentos Acad.micos" data-source-line="39" id="ent0021"><path d="M532.86,814.1669 L573.86,814.1669 A3.75,3.75 0 0 1 576.36,816.6669 L583.36,835.1669 L735.1364,835.1669 A2.5,2.5 0 0 1 737.6364,837.6669 L737.6364,865.9638 A2.5,2.5 0 0 1 735.1364,868.4638 L532.86,868.4638 A2.5,2.5 0 0 1 530.36,865.9638 L530.36,816.6669 A2.5,2.5 0 0 1 532.86,814.1669" fill="#F1F1F1" style="stroke:#181818;stroke-width:0.5;"/><line style="stroke:#181818;stroke-width:0.5;" x1="530.36" x2="583.36" y1="835.1669" y2="835.1669"/><text fill="#000000" font-family="sans-serif" font-size="14" lengthAdjust="spacing" textLength="177.2764" x="540.36" y="855.162">Documentos Acad&#234;micos</text></g><!--entity E-mail--><g class="entity" data-qualified-name="Servi.o Externo.E-mail" data-source-line="44" id="ent0023"><rect fill="#F1F1F1" height="39.2969" rx="2.5" ry="2.5" style="stroke:#181818;stroke-width:0.5;" width="73.8936" x="950.05" y="706.3769"/><polygon fill="#F1F1F1" points="1006.9436,711.3769,1006.9436,725.3769,1018.9436,725.3769,1018.9436,717.3769,1012.9436,711.3769,1006.9436,711.3769" style="stroke:#181818;stroke-width:0.5;stroke-linejoin:miter;stroke-miterlimit:10;"/><line style="stroke:#181818;stroke-width:0.5;" x1="1012.9436" x2="1012.9436" y1="711.3769" y2="717.3769"/><line style="stroke:#181818;stroke-width:0.5;" x1="1018.9436" x2="1012.9436" y1="717.3769" y2="717.3769"/><text fill="#000000" font-family="sans-serif" font-size="14" lengthAdjust="spacing" textLength="43.8936" x="960.05" y="732.372">E-mail</text></g><!--entity WhatsApp--><g class="entity" data-qualified-name="Servi.o Externo.WhatsApp" data-source-line="45" id="ent0024"><rect fill="#F1F1F1" height="39.2969" rx="2.5" ry="2.5" style="stroke:#181818;stroke-width:0.5;" width="101.4287" x="1059.29" y="706.3769"/><polygon fill="#F1F1F1" points="1143.7187,711.3769,1143.7187,725.3769,1155.7187,725.3769,1155.7187,717.3769,1149.7187,711.3769,1143.7187,711.3769" style="stroke:#181818;stroke-width:0.5;stroke-linejoin:miter;stroke-miterlimit:10;"/><line style="stroke:#181818;stroke-width:0.5;" x1="1149.7187" x2="1149.7187" y1="711.3769" y2="717.3769"/><line style="stroke:#181818;stroke-width:0.5;" x1="1155.7187" x2="1149.7187" y1="717.3769" y2="717.3769"/><text fill="#000000" font-family="sans-serif" font-size="14" lengthAdjust="spacing" textLength="71.4287" x="1069.29" y="732.372">WhatsApp</text></g><!--link Frontend to API--><g class="link" data-entity-1="ent0003" data-entity-2="ent0005" data-link-type="dependency" data-source-line="48" id="lnk25"><path d="M648,251.9769 C648,296.5269 648,358.6369 648,391.1369" fill="none" id="Frontend-to-API" style="stroke:#181818;stroke-width:1;"/><polygon fill="#181818" points="648,396.1369,652,387.1369,648,391.1369,644,387.1369,648,396.1369" style="stroke:#181818;stroke-width:1;stroke-linejoin:miter;stroke-miterlimit:10;"/><text fill="#000000" font-family="sans-serif" font-size="13" lengthAdjust="spacing" textLength="41.7485" x="649" y="320.5538">HTTPS</text></g><!--link API to Auth--><g class="link" data-entity-1="ent0005" data-entity-2="ent0006" data-link-type="dependency" data-source-line="50" id="lnk26"><path d="M601.47,429.4369 C546.03,444.3369 450.74,470.6869 370,496.7769 C362.48,499.2069 359.3411,500.2303 351.5711,502.9403" fill="none" id="API-to-Auth" style="stroke:#181818;stroke-width:1;"/><polygon fill="#181818" points="346.85,504.5869,356.6652,505.3999,351.5711,502.9403,354.0307,497.8461,346.85,504.5869" style="stroke:#181818;stroke-width:1;stroke-linejoin:miter;stroke-miterlimit:10;"/></g><!--link API to Solic--><g class="link" data-entity-1="ent0005" data-entity-2="ent0007" data-link-type="dependency" data-source-line="51" id="lnk27"><path d="M616.03,436.0269 C587.98,452.6069 550.9837,474.4717 518.2137,493.8517" fill="none" id="API-to-Solic" style="stroke:#181818;stroke-width:1;"/><polygon fill="#181818" points="513.91,496.3969,523.6928,495.2585,518.2137,493.8517,519.6205,488.3726,513.91,496.3969" style="stroke:#181818;stroke-width:1;stroke-linejoin:miter;stroke-miterlimit:10;"/></g><!--link API to Docs--><g class="link" data-entity-1="ent0005" data-entity-2="ent0008" data-link-type="dependency" data-source-line="52" id="lnk28"><path d="M680.49,436.0269 C708.99,452.6069 746.6282,474.5024 779.9382,493.8824" fill="none" id="API-to-Docs" style="stroke:#181818;stroke-width:1;"/><polygon fill="#181818" points="784.26,496.3969,778.4924,488.4135,779.9382,493.8824,774.4693,495.3283,784.26,496.3969" style="stroke:#181818;stroke-width:1;stroke-linejoin:miter;stroke-miterlimit:10;"/></g><!--link API to Notif--><g class="link" data-entity-1="ent0005" data-entity-2="ent0009" data-link-type="dependency" data-source-line="53" id="lnk29"><path d="M694.65,429.6269 C751.05,444.8669 848.77,471.7069 932,496.7769 C937.66,498.4869 938.7366,498.7987 944.6066,500.6287" fill="none" id="API-to-Notif" style="stroke:#181818;stroke-width:1;"/><polygon fill="#181818" points="949.38,502.1169,941.9784,495.6195,944.6066,500.6287,939.5974,503.257,949.38,502.1169" style="stroke:#181818;stroke-width:1;stroke-linejoin:miter;stroke-miterlimit:10;"/></g><!--link API to Rel--><g class="link" data-entity-1="ent0005" data-entity-2="ent0010" data-link-type="dependency" data-source-line="54" id="lnk30"><path d="M648,435.7769 C648,452.4469 648,472.1669 648,491.6869" fill="none" id="API-to-Rel" style="stroke:#181818;stroke-width:1;"/><polygon fill="#181818" points="648,496.6869,652,487.6869,648,491.6869,644,487.6869,648,496.6869" style="stroke:#181818;stroke-width:1;stroke-linejoin:miter;stroke-miterlimit:10;"/></g><!--link Auth to Banco de Dados--><g class="link" data-entity-1="ent0006" data-entity-2="ent0011" data-link-type="dependency" data-source-line="56" id="lnk31"><path d="M318.94,551.6969 C334.21,561.8269 352.75,573.6569 370,583.3769 C399.27,599.8569 417.66,589.6369 438,616.3769 C441.6588,621.1844 442.6273,621.9127 445.1824,627.4575" fill="none" id="Auth-to-Banco de Dados" style="stroke:#181818;stroke-width:1;"/><polygon fill="#181818" points="447.275,631.9985,447.1411,622.1506,445.1824,627.4575,439.8755,625.4987,447.275,631.9985" style="stroke:#181818;stroke-width:1;stroke-linejoin:miter;stroke-miterlimit:10;"/></g><!--link Solic to Banco de Dados--><g class="link" data-entity-1="ent0007" data-entity-2="ent0011" data-link-type="dependency" data-source-line="57" id="lnk32"><path d="M461.38,559.6969 C461.1025,573.2569 460.7569,590.155 460.3934,607.927 C460.3026,612.37 460.2106,616.8677 460.1183,621.3814 C460.0722,623.6383 460.0259,625.8992 459.9797,628.1593 C459.9566,629.2894 460.0357,625.4203 460.0126,626.5493" fill="none" id="Solic-to-Banco de Dados" style="stroke:#181818;stroke-width:1;"/><polygon fill="#181818" points="459.9104,631.5483,464.0936,622.6319,460.0126,626.5493,456.0952,622.4684,459.9104,631.5483" style="stroke:#181818;stroke-width:1;stroke-linejoin:miter;stroke-miterlimit:10;"/></g><!--link Rel to Banco de Dados--><g class="link" data-entity-1="ent0010" data-entity-2="ent0011" data-link-type="dependency" data-source-line="58" id="lnk33"><path d="M594.91,559.8269 C563.14,578.9469 526.56,602.4669 514,616.3769 C496.075,636.2169 482.23,662.8469 472.79,684.7769 C470.43,690.2594 468.3453,695.4481 466.541,700.1636 C466.4282,700.4583 466.3166,700.7512 466.206,701.0422 C466.1507,701.1876 467.8666,696.6568 467.8118,696.8013" fill="none" id="Rel-to-Banco de Dados" style="stroke:#181818;stroke-width:1;"/><polygon fill="#181818" points="466.041,701.4772,472.9693,694.4773,467.8118,696.8013,465.4879,691.6439,466.041,701.4772" style="stroke:#181818;stroke-width:1;stroke-linejoin:miter;stroke-miterlimit:10;"/></g><!--link Docs to Servidor de Arquivos--><g class="link" data-entity-1="ent0008" data-entity-2="ent0018" data-link-type="dependency" data-source-line="60" id="lnk34"><path d="M838.41,559.6969 C839.0325,573.2569 839.8081,590.155 840.6239,607.927 C840.8279,612.37 841.0343,616.8677 841.2415,621.3814 C841.3451,623.6383 841.4489,625.8992 841.5526,628.1593 C841.6045,629.2894 841.6564,630.4192 841.7082,631.5483 C841.7341,632.1128 841.76,632.6771 841.7859,633.2412 C841.7989,633.5232 841.5825,628.8105 841.5955,629.0923" fill="none" id="Docs-to-Servidor de Arquivos" style="stroke:#181818;stroke-width:1;"/><polygon fill="#181818" points="841.8248,634.0871,845.4078,624.9131,841.5955,629.0923,837.4162,625.28,841.8248,634.0871" style="stroke:#181818;stroke-width:1;stroke-linejoin:miter;stroke-miterlimit:10;"/></g><!--link Notif to E-mail--><g class="link" data-entity-1="ent0009" data-entity-2="ent0023" data-link-type="dependency" data-source-line="62" id="lnk35"><path d="M1010.39,559.7569 C1006.01,569.6269 1001.7,580.7469 999,591.3769 C988.83,631.3369 987.0225,674.927 986.8525,701.107" fill="none" id="Notif-to-E-mail" style="stroke:#181818;stroke-width:1;"/><polygon fill="#181818" points="986.82,706.1069,990.8784,697.133,986.8525,701.107,982.8785,697.0811,986.82,706.1069" style="stroke:#181818;stroke-width:1;stroke-linejoin:miter;stroke-miterlimit:10;"/><text fill="#000000" font-family="sans-serif" font-size="13" lengthAdjust="spacing" textLength="60.1948" x="1000" y="604.4438">SMTP/API</text></g><!--link Notif to WhatsApp--><g class="link" data-entity-1="ent0009" data-entity-2="ent0024" data-link-type="dependency" data-source-line="63" id="lnk36"><path d="M1047.12,559.6369 C1053.39,569.4969 1059.92,580.6469 1065,591.3769 C1083.54,630.5469 1096.6469,674.6097 1103.7869,701.0597" fill="none" id="Notif-to-WhatsApp" style="stroke:#181818;stroke-width:1;"/><polygon fill="#181818" points="1105.09,705.8869,1106.6062,696.1554,1103.7869,701.0597,1098.8827,698.2403,1105.09,705.8869" style="stroke:#181818;stroke-width:1;stroke-linejoin:miter;stroke-miterlimit:10;"/><text fill="#000000" font-family="sans-serif" font-size="13" lengthAdjust="spacing" textLength="58.1382" x="1072" y="604.4438">REST API</text></g><?plantuml-src ZLFDRjim3BxhAOYSDY11xqCHm6lIDOSLHfsXbrnKcKc4sQ8doLw0eGypx51Wrs5Fu1SR9ST9wWH3VJBryUSZ-T5hNo3CjDnOMKh84HPbLKZZPVlI_YAOGAQTnmvAF9fSbsWyGQ9atlukjI8Xt5TjAia98DlAdBvhiu6rB1mAOOZZHZFjAdBQwuOW9_ZYwlQdrJI2w-iS6wrmEeKV0lZh_EzbWnlEPE4Hdu8Nxb3LNfEPcqPR2XGE8U6JrkkrL1v62-FHyY-6GdlkA_CkAMf3OqWjhT4vicDOcGoLHI-jbcEu8R8vcgxh02PvgKq8ju77-n581xUMJ1X1BFiidllsChID3cp3ZAf2govD8EuOGdlWUkIPf0juc6VBc9WD4N55PKM6ksE7calvOwxWLlljcTydj6YKbd4jAnCuPCGST5pXNtGnD3xzFnQwu1cfEjfT89lkJN7tnAszeXjVtXJxW8Nqn8heQh8PXfjBBv-aum5_b4PH9CVBS54sUonETZ3QNbvkD006SncW9uqFa5HQL4px3BXZWRH_B1_143cPHYnrMIlsMyqduGP2YQdMLEHeMGO6T-GWdTsENhtVy4GjDNofFQqUEVPnSgHS8t1G1TNvdaJxGZ3ViS0Dh-jiYFD9ANKnREjnAxrBgYesr9y3J2RJ867u07VBPPe94Opu60JR6vq4UolggZSwfVGMhnyu1yT6SxXz4HDTXaBeHK24UXrqSGD2H0wTnxvtxYVxl4olmdMUe8SPC1ukEBJ-3m00?></g></svg>