<svg xmlns="http://www.w3.org/2000/svg" xmlns:xlink="http://www.w3.org/1999/xlink" contentStyleType="text/css" data-diagram-type="DESCRIPTION" height="1726px" preserveAspectRatio="none" style="width:1676px;height:1726px;background:#FFFFFF;" version="1.1" viewBox="0 0 1676 1726" width="1676px" zoomAndPan="magnify"><?plantuml 1.2026.5?><defs/><g><!--cluster Institui??o--><g class="cluster" data-qualified-name="Institui..o" data-source-line="10" id="ent0006"><rect fill="none" height="652" rx="2.5" ry="2.5" style="stroke:#181818;stroke-width:1;" width="219.69" x="347.17" y="593.7"/><text fill="#000000" font-family="sans-serif" font-size="14" font-weight="700" lengthAdjust="spacing" textLength="83.8223" x="415.1039" y="608.6951">Institui&#231;&#227;o</text></g><!--cluster AlunoInterface--><g class="cluster" data-qualified-name="AlunoInterface" data-source-line="22" id="ent0016"><rect fill="none" height="346" rx="2.5" ry="2.5" style="stroke:#181818;stroke-width:1;" width="694.66" x="298.29" y="77.7"/><text fill="#000000" font-family="sans-serif" font-size="14" font-weight="700" lengthAdjust="spacing" textLength="116.7852" x="587.2274" y="92.6951">AlunoInterface</text></g><!--cluster SecretariaInterface--><g class="cluster" data-qualified-name="SecretariaInterface" data-source-line="32" id="ent0024"><rect fill="none" height="103" rx="2.5" ry="2.5" style="stroke:#181818;stroke-width:1;" width="621.12" x="347.26" y="466.7"/><text fill="#000000" font-family="sans-serif" font-size="14" font-weight="700" lengthAdjust="spacing" textLength="153.166" x="581.237" y="481.6951">SecretariaInterface</text></g><!--cluster CoordenacaoInterface--><g class="cluster" data-qualified-name="CoordenacaoInterface" data-source-line="37" id="ent0027"><rect fill="none" height="160" rx="2.5" ry="2.5" style="stroke:#181818;stroke-width:1;" width="547.87" x="7" y="1552.7"/><text fill="#000000" font-family="sans-serif" font-size="14" font-weight="700" lengthAdjust="spacing" textLength="174.3096" x="193.7802" y="1567.6951">CoordenacaoInterface</text></g><!--cluster ProfessorInterface--><g class="cluster" data-qualified-name="ProfessorInterface" data-source-line="43" id="ent0031"><rect fill="none" height="259" rx="2.5" ry="2.5" style="stroke:#181818;stroke-width:1;" width="1311.65" x="350.99" y="1269.7"/><text fill="#000000" font-family="sans-serif" font-size="14" font-weight="700" lengthAdjust="spacing" textLength="147.1572" x="933.2364" y="1284.6951">ProfessorInterface</text></g><!--entity mc--><g class="entity" data-qualified-name="Institui..o.mc" data-source-line="11" id="ent0007"><ellipse cx="457.0167" cy="712.6993" fill="#F1F1F1" rx="76.3467" ry="17.6693" style="stroke:#181818;stroke-width:0.5;"/><text fill="#000000" font-family="sans-serif" font-size="14" lengthAdjust="spacing" textLength="121.9805" x="396.0264" y="717.3478">Manter cadastros</text></g><!--entity cu--><g class="entity" data-qualified-name="Institui..o.cu" data-source-line="12" id="ent0008"><ellipse cx="457.0162" cy="1069.6992" fill="#F1F1F1" rx="77.5962" ry="17.9192" style="stroke:#181818;stroke-width:0.5;"/><text fill="#000000" font-family="sans-serif" font-size="14" lengthAdjust="spacing" textLength="124.9746" x="394.5289" y="1074.3477">Cadastrar usu&#225;rio</text></g><!--entity ca--><g class="entity" data-qualified-name="Institui..o.ca" data-source-line="13" id="ent0009"><ellipse cx="457.0222" cy="1212.7044" fill="#F1F1F1" rx="72.2222" ry="16.8444" style="stroke:#181818;stroke-width:0.5;"/><text fill="#000000" font-family="sans-serif" font-size="14" lengthAdjust="spacing" textLength="111.9248" x="401.0598" y="1217.3529">Cadastrar aluno</text></g><!--entity cp--><g class="entity" data-qualified-name="Institui..o.cp" data-source-line="14" id="ent0010"><ellipse cx="457.017" cy="1141.6954" fill="#F1F1F1" rx="83.477" ry="19.0954" style="stroke:#181818;stroke-width:0.5;"/><text fill="#000000" font-family="sans-serif" font-size="14" lengthAdjust="spacing" textLength="138.8037" x="387.6151" y="1146.3438">Cadastrar professor</text></g><!--entity cd--><g class="entity" data-qualified-name="Institui..o.cd" data-source-line="15" id="ent0011"><ellipse cx="457.0156" cy="922.6991" fill="#F1F1F1" rx="93.8456" ry="21.1691" style="stroke:#181818;stroke-width:0.5;"/><text fill="#000000" font-family="sans-serif" font-size="14" lengthAdjust="spacing" textLength="162.3945" x="375.8183" y="927.3476">Cadastro de disciplinas</text></g><!--entity ct--><g class="entity" data-qualified-name="Institui..o.ct" data-source-line="16" id="ent0012"><ellipse cx="457.0218" cy="997.6984" fill="#F1F1F1" rx="83.5418" ry="19.1084" style="stroke:#181818;stroke-width:0.5;"/><text fill="#000000" font-family="sans-serif" font-size="14" lengthAdjust="spacing" textLength="138.9541" x="387.5448" y="1002.3468">Cadastro de turmas</text></g><!--entity gr--><g class="entity" data-qualified-name="Institui..o.gr" data-source-line="17" id="ent0013"><ellipse cx="457.0175" cy="849.7015" fill="#F1F1F1" rx="71.6075" ry="16.7215" style="stroke:#181818;stroke-width:0.5;"/><text fill="#000000" font-family="sans-serif" font-size="14" lengthAdjust="spacing" textLength="110.4004" x="401.8173" y="854.3499">Gerar relat&#243;rios</text></g><!--entity na--><g class="entity" data-qualified-name="Institui..o.na" data-source-line="18" id="ent0014"><ellipse cx="457.023" cy="781.7026" fill="#F1F1F1" rx="71.363" ry="16.6726" style="stroke:#181818;stroke-width:0.5;"/><text fill="#000000" font-family="sans-serif" font-size="14" lengthAdjust="spacing" textLength="109.792" x="402.127" y="786.351">Notificar alunos</text></g><!--entity login--><g class="entity" data-qualified-name="Institui..o.login" data-source-line="19" id="ent0015"><ellipse cx="457.0156" cy="644.7011" fill="#F1F1F1" rx="65.5556" ry="15.5111" style="stroke:#181818;stroke-width:0.5;"/><text fill="#000000" font-family="sans-serif" font-size="14" lengthAdjust="spacing" textLength="94.9375" x="409.5469" y="649.3496">Realizar login</text></g><!--entity rs--><g class="entity" data-qualified-name="AlunoInterface.rs" data-source-line="23" id="ent0017"><ellipse cx="860.6496" cy="216.7019" fill="#F1F1F1" rx="85.1096" ry="19.4219" style="stroke:#181818;stroke-width:0.5;"/><text fill="#000000" font-family="sans-serif" font-size="14" lengthAdjust="spacing" textLength="142.5771" x="789.361" y="221.3504">Registrar solicita&#231;&#227;o</text></g><!--entity anxDoc--><g class="entity" data-qualified-name="AlunoInterface.anxDoc" data-source-line="24" id="ent0018"><ellipse cx="457.0212" cy="131.6962" fill="#F1F1F1" rx="81.1312" ry="18.6262" style="stroke:#181818;stroke-width:0.5;"/><text fill="#000000" font-family="sans-serif" font-size="14" lengthAdjust="spacing" textLength="133.335" x="390.3537" y="136.3447">Anexar documento</text></g><!--entity acomp--><g class="entity" data-qualified-name="AlunoInterface.acomp" data-source-line="25" id="ent0019"><ellipse cx="457.0239" cy="206.6968" fill="#F1F1F1" rx="96.1839" ry="21.6368" style="stroke:#181818;stroke-width:0.5;"/><text fill="#000000" font-family="sans-serif" font-size="14" lengthAdjust="spacing" textLength="167.6104" x="373.2187" y="211.3452">Acompanhar solicita&#231;&#227;o</text></g><!--entity solicNotif--><g class="entity" data-qualified-name="AlunoInterface.solicNotif" data-source-line="26" id="ent0020"><ellipse cx="457.018" cy="294.6956" fill="#F1F1F1" rx="142.728" ry="30.9456" style="stroke:#181818;stroke-width:0.5;"/><text fill="#000000" font-family="sans-serif" font-size="14" lengthAdjust="spacing" textLength="267.3125" x="323.3618" y="299.344">Solicitar meio de notifica&#231;&#227;o preferida</text></g><!--entity emailNotif--><g class="entity" data-qualified-name="AlunoInterface.emailNotif" data-source-line="27" id="ent0021"><ellipse cx="860.6464" cy="296.7013" fill="#F1F1F1" rx="116.3064" ry="25.6613" style="stroke:#181818;stroke-width:0.5;"/><text fill="#000000" font-family="sans-serif" font-size="14" lengthAdjust="spacing" textLength="211.4561" x="754.9184" y="301.3497">Escolher notifica&#231;&#227;o por email</text></g><!--entity smsNotif--><g class="entity" data-qualified-name="AlunoInterface.smsNotif" data-source-line="28" id="ent0022"><ellipse cx="860.6522" cy="137.6964" fill="#F1F1F1" rx="112.2322" ry="24.8464" style="stroke:#181818;stroke-width:0.5;"/><text fill="#000000" font-family="sans-serif" font-size="14" lengthAdjust="spacing" textLength="202.6992" x="759.3026" y="142.3449">Escolher notifica&#231;&#227;o por SMS</text></g><!--entity pushNotif--><g class="entity" data-qualified-name="AlunoInterface.pushNotif" data-source-line="29" id="ent0023"><ellipse cx="860.6549" cy="382.705" fill="#F1F1F1" rx="114.1249" ry="25.225" style="stroke:#181818;stroke-width:0.5;"/><text fill="#000000" font-family="sans-serif" font-size="14" lengthAdjust="spacing" textLength="206.7734" x="757.2682" y="387.3534">Escolher notifica&#231;&#227;o por push</text></g><!--entity validDoc--><g class="entity" data-qualified-name="SecretariaInterface.validDoc" data-source-line="33" id="ent0025"><ellipse cx="860.6479" cy="522.6976" fill="#F1F1F1" rx="91.7379" ry="20.7476" style="stroke:#181818;stroke-width:0.5;"/><text fill="#000000" font-family="sans-serif" font-size="14" lengthAdjust="spacing" textLength="157.6641" x="781.8159" y="527.346">Validar documenta&#231;&#227;o</text></g><!--entity encSol--><g class="entity" data-qualified-name="SecretariaInterface.encSol" data-source-line="34" id="ent0026"><ellipse cx="457.024" cy="532.7008" fill="#F1F1F1" rx="93.754" ry="21.1508" style="stroke:#181818;stroke-width:0.5;"/><text fill="#000000" font-family="sans-serif" font-size="14" lengthAdjust="spacing" textLength="162.1895" x="375.9292" y="537.3492">Encaminhar solicita&#231;&#227;o</text></g><!--entity analise--><g class="entity" data-qualified-name="CoordenacaoInterface.analise" data-source-line="38" id="ent0028"><ellipse cx="457.0228" cy="1606.7006" fill="#F1F1F1" rx="81.8528" ry="18.7706" style="stroke:#181818;stroke-width:0.5;"/><text fill="#000000" font-family="sans-serif" font-size="14" lengthAdjust="spacing" textLength="135.0234" x="389.511" y="1611.349">Analisar solicita&#231;&#227;o</text></g><!--entity aprovSol--><g class="entity" data-qualified-name="CoordenacaoInterface.aprovSol" data-source-line="39" id="ent0029"><ellipse cx="106.144" cy="1678.7028" fill="#F1F1F1" rx="78.414" ry="18.0828" style="stroke:#181818;stroke-width:0.5;"/><text fill="#000000" font-family="sans-serif" font-size="14" lengthAdjust="spacing" textLength="126.9229" x="42.6826" y="1683.3512">Deferir solicita&#231;&#227;o</text></g><!--entity reprSol--><g class="entity" data-qualified-name="CoordenacaoInterface.reprSol" data-source-line="40" id="ent0030"><ellipse cx="106.1441" cy="1606.6988" fill="#F1F1F1" rx="83.1441" ry="19.0288" style="stroke:#181818;stroke-width:0.5;"/><text fill="#000000" font-family="sans-serif" font-size="14" lengthAdjust="spacing" textLength="138.0313" x="37.1285" y="1611.3473">Indeferir solicita&#231;&#227;o</text></g><!--entity resSol--><g class="entity" data-qualified-name="ProfessorInterface.resSol" data-source-line="44" id="ent0032"><ellipse cx="457.0168" cy="1456.6954" fill="#F1F1F1" rx="90.0268" ry="20.4054" style="stroke:#181818;stroke-width:0.5;"/><text fill="#000000" font-family="sans-serif" font-size="14" lengthAdjust="spacing" textLength="153.8018" x="380.116" y="1461.3438">Responder solicita&#231;&#227;o</text></g><!--entity checkin--><g class="entity" data-qualified-name="ProfessorInterface.checkin" data-source-line="45" id="ent0033"><ellipse cx="457.0247" cy="1383.7049" fill="#F1F1F1" rx="75.3747" ry="17.4749" style="stroke:#181818;stroke-width:0.5;"/><text fill="#000000" font-family="sans-serif" font-size="14" lengthAdjust="spacing" textLength="119.6357" x="397.2069" y="1388.3534">Realizar check-in</text></g><!--entity regChegada--><g class="entity" data-qualified-name="ProfessorInterface.regChegada" data-source-line="46" id="ent0034"><ellipse cx="860.6532" cy="1412.7046" fill="#F1F1F1" rx="113.2732" ry="25.0546" style="stroke:#181818;stroke-width:0.5;"/><text fill="#000000" font-family="sans-serif" font-size="14" lengthAdjust="spacing" textLength="204.9414" x="758.1825" y="1417.3531">Registrar hor&#225;rio de chegada</text></g><!--entity viewPonto--><g class="entity" data-qualified-name="ProfessorInterface.viewPonto" data-source-line="47" id="ent0035"><ellipse cx="860.6501" cy="1328.704" fill="#F1F1F1" rx="107.8201" ry="23.964" style="stroke:#181818;stroke-width:0.5;"/><text fill="#000000" font-family="sans-serif" font-size="14" lengthAdjust="spacing" textLength="193.1563" x="764.072" y="1333.3525">Visualizar registro de ponto</text></g><!--entity verifSala--><g class="entity" data-qualified-name="ProfessorInterface.verifSala" data-source-line="48" id="ent0036"><ellipse cx="860.65" cy="1492.7" fill="#F1F1F1" rx="89.55" ry="20.31" style="stroke:#181818;stroke-width:0.5;"/><text fill="#000000" font-family="sans-serif" font-size="14" lengthAdjust="spacing" textLength="152.7217" x="784.2892" y="1497.3484">Verificar sala prevista</text></g><!--entity confSalaOk--><g class="entity" data-qualified-name="ProfessorInterface.confSalaOk" data-source-line="49" id="ent0037"><ellipse cx="1213.1368" cy="1484.6994" fill="#F1F1F1" rx="91.6468" ry="20.7294" style="stroke:#181818;stroke-width:0.5;"/><text fill="#000000" font-family="sans-serif" font-size="14" lengthAdjust="spacing" textLength="157.459" x="1134.4073" y="1489.3478">Confirmar sala correta</text></g><!--entity reportSalaErrada--><g class="entity" data-qualified-name="ProfessorInterface.reportSalaErrada" data-source-line="50" id="ent0038"><ellipse cx="1213.1352" cy="1407.699" fill="#F1F1F1" rx="93.5952" ry="21.119" style="stroke:#181818;stroke-width:0.5;"/><text fill="#000000" font-family="sans-serif" font-size="14" lengthAdjust="spacing" textLength="161.834" x="1132.2182" y="1412.3475">Reportar sala incorreta</text></g><!--entity solicRealocacao--><g class="entity" data-qualified-name="ProfessorInterface.solicRealocacao" data-source-line="51" id="ent0039"><ellipse cx="1539.1918" cy="1407.7004" fill="#F1F1F1" rx="107.4518" ry="23.8904" style="stroke:#181818;stroke-width:0.5;"/><text fill="#000000" font-family="sans-serif" font-size="14" lengthAdjust="spacing" textLength="192.3564" x="1443.0136" y="1412.3488">Solicitar realoca&#231;&#227;o de sala</text></g><!--entity aln--><g class="entity" data-qualified-name="aln" data-source-line="4" id="ent0001"><ellipse cx="106.1392" cy="265.05" fill="#F1F1F1" rx="8" ry="8" style="stroke:#181818;stroke-width:0.5;"/><path d="M106.1392,273.05 L106.1392,300.05 M93.1392,281.05 L119.1392,281.05 M106.1392,300.05 L93.1392,315.05 M106.1392,300.05 L119.1392,315.05" fill="none" style="stroke:#181818;stroke-width:0.5;"/><text fill="#000000" font-family="sans-serif" font-size="14" lengthAdjust="spacing" textLength="39.7783" x="86.25" y="329.5451">Aluno</text></g><!--entity adm--><g class="entity" data-qualified-name="adm" data-source-line="5" id="ent0002"><ellipse cx="106.1469" cy="728.05" fill="#F1F1F1" rx="8" ry="8" style="stroke:#181818;stroke-width:0.5;"/><path d="M106.1469,736.05 L106.1469,763.05 M93.1469,744.05 L119.1469,744.05 M106.1469,763.05 L93.1469,778.05 M106.1469,763.05 L119.1469,778.05" fill="none" style="stroke:#181818;stroke-width:0.5;"/><text fill="#000000" font-family="sans-serif" font-size="14" lengthAdjust="spacing" textLength="100.7139" x="55.79" y="792.5451">Administra&#231;&#227;o</text></g><!--entity sec--><g class="entity" data-qualified-name="sec" data-source-line="6" id="ent0003"><ellipse cx="106.1397" cy="569.05" fill="#F1F1F1" rx="8" ry="8" style="stroke:#181818;stroke-width:0.5;"/><path d="M106.1397,577.05 L106.1397,604.05 M93.1397,585.05 L119.1397,585.05 M106.1397,604.05 L93.1397,619.05 M106.1397,604.05 L119.1397,619.05" fill="none" style="stroke:#181818;stroke-width:0.5;"/><text fill="#000000" font-family="sans-serif" font-size="14" lengthAdjust="spacing" textLength="71.8594" x="70.21" y="633.5451">Secretaria</text></g><!--entity prof--><g class="entity" data-qualified-name="prof" data-source-line="7" id="ent0004"><ellipse cx="106.1474" cy="1354.05" fill="#F1F1F1" rx="8" ry="8" style="stroke:#181818;stroke-width:0.5;"/><path d="M106.1474,1362.05 L106.1474,1389.05 M93.1474,1370.05 L119.1474,1370.05 M106.1474,1389.05 L93.1474,1404.05 M106.1474,1389.05 L119.1474,1404.05" fill="none" style="stroke:#181818;stroke-width:0.5;"/><text fill="#000000" font-family="sans-serif" font-size="14" lengthAdjust="spacing" textLength="65.2148" x="73.54" y="1418.5451">Professor</text></g><!--entity coord--><g class="entity" data-qualified-name="coord" data-source-line="8" id="ent0005"><ellipse cx="106.148" cy="893.05" fill="#F1F1F1" rx="8" ry="8" style="stroke:#181818;stroke-width:0.5;"/><path d="M106.148,901.05 L106.148,928.05 M93.148,909.05 L119.148,909.05 M106.148,928.05 L93.148,943.05 M106.148,928.05 L119.148,943.05" fill="none" style="stroke:#181818;stroke-width:0.5;"/><text fill="#000000" font-family="sans-serif" font-size="14" lengthAdjust="spacing" textLength="92.4561" x="59.92" y="957.5451">Coordena&#231;&#227;o</text></g><g class="entity" data-qualified-name="GMN77" data-source-line="105" id="ent0078"><path d="M724.74,6 L724.74,61.3984 L996.5422,61.3984 L996.5422,16 L986.5422,6 L724.74,6" fill="#FEFFDD" style="stroke:#181818;stroke-width:0.5;"/><path d="M986.5422,6 L986.5422,16 L996.5422,16 L986.5422,6" fill="#FEFFDD" style="stroke:#181818;stroke-width:1;"/><text fill="#000000" font-family="sans-serif" font-size="13" lengthAdjust="spacing" textLength="230.2866" x="730.74" y="23.0669">O professor deve verificar se a sala</text><text fill="#000000" font-family="sans-serif" font-size="13" lengthAdjust="spacing" textLength="250.8022" x="730.74" y="38.1997">dispon&#237;vel corresponde &#224; sala prevista</text><text fill="#000000" font-family="sans-serif" font-size="13" lengthAdjust="spacing" textLength="135.751" x="730.74" y="53.3325">no hor&#225;rio agendado</text></g><g class="entity" data-qualified-name="GMN80" data-source-line="111" id="ent0081"><path d="M362.32,6 L362.32,61.3984 L551.7106,61.3984 L551.7106,16 L541.7106,6 L362.32,6" fill="#FEFFDD" style="stroke:#181818;stroke-width:0.5;"/><path d="M541.7106,6 L541.7106,16 L551.7106,16 L541.7106,6" fill="#FEFFDD" style="stroke:#181818;stroke-width:1;"/><text fill="#000000" font-family="sans-serif" font-size="13" lengthAdjust="spacing" textLength="168.3906" x="368.32" y="23.0669">Login &#233; pr&#233;-requisito para</text><text fill="#000000" font-family="sans-serif" font-size="13" lengthAdjust="spacing" textLength="161.2241" x="368.32" y="38.1997">acesso a todos os outros</text><text fill="#000000" font-family="sans-serif" font-size="13" lengthAdjust="spacing" textLength="159.4468" x="368.32" y="53.3325">casos de uso do sistema</text></g><!--link adm to mc--><g class="link" data-entity-1="ent0002" data-entity-2="ent0007" data-link-type="dependency" data-source-line="54" id="lnk40"><path d="M156.76,751.3 C217.8,743.43 316.7211,730.6699 384.6111,721.9099" fill="none" id="adm-to-mc" style="stroke:#181818;stroke-width:1;"/><polygon fill="#181818" points="389.57,721.27,380.1321,718.4546,384.6111,721.9099,381.1559,726.3889,389.57,721.27" style="stroke:#181818;stroke-width:1;stroke-linejoin:miter;stroke-miterlimit:10;"/></g><!--link adm to gr--><g class="link" data-entity-1="ent0002" data-entity-2="ent0013" data-link-type="dependency" data-source-line="55" id="lnk41"><path d="M156.87,775 C193.48,787.35 244.62,803.82 290.29,815.7 C326.1,825.02 361.8981,832.4654 394.0081,838.5754" fill="none" id="adm-to-gr" style="stroke:#181818;stroke-width:1;"/><polygon fill="#181818" points="398.92,839.51,390.8264,833.8981,394.0081,838.5754,389.3309,841.7571,398.92,839.51" style="stroke:#181818;stroke-width:1;stroke-linejoin:miter;stroke-miterlimit:10;"/></g><!--link sec to validDoc--><g class="link" data-entity-1="ent0003" data-entity-2="ent0025" data-link-type="dependency" data-source-line="57" id="lnk42"><path d="M142.51,570.87 C177.68,545.11 234.33,508.6 290.29,493.7 C469.62,445.94 686.7997,482.6125 792.7997,506.2325" fill="none" id="sec-to-validDoc" style="stroke:#181818;stroke-width:1;"/><polygon fill="#181818" points="797.68,507.32,789.7654,501.4583,792.7997,506.2325,788.0255,509.2668,797.68,507.32" style="stroke:#181818;stroke-width:1;stroke-linejoin:miter;stroke-miterlimit:10;"/></g><!--link sec to encSol--><g class="link" data-entity-1="ent0003" data-entity-2="ent0026" data-link-type="dependency" data-source-line="58" id="lnk43"><path d="M142.52,592.01 C198.9,581.34 305.3872,561.1995 379.0672,547.2595" fill="none" id="sec-to-encSol" style="stroke:#181818;stroke-width:1;"/><polygon fill="#181818" points="383.98,546.33,374.3933,544.0728,379.0672,547.2595,375.8805,551.9334,383.98,546.33" style="stroke:#181818;stroke-width:1;stroke-linejoin:miter;stroke-miterlimit:10;"/></g><!--link sec to na--><g class="link" data-entity-1="ent0003" data-entity-2="ent0014" data-link-type="dependency" data-source-line="59" id="lnk44"><path d="M142.46,599.97 C183.17,603.5 248.76,615.96 282.29,658.7 C294.54,674.32 277.06,732.89 290.29,747.7 C314.16,774.42 347.9292,783.0964 381.9592,785.1664" fill="none" id="sec-to-na" style="stroke:#181818;stroke-width:1;"/><polygon fill="#181818" points="386.95,785.47,378.2095,780.9309,381.9592,785.1664,377.7237,788.9162,386.95,785.47" style="stroke:#181818;stroke-width:1;stroke-linejoin:miter;stroke-miterlimit:10;"/></g><!--link sec to gr--><g class="link" data-entity-1="ent0003" data-entity-2="ent0013" data-link-type="dependency" data-source-line="60" id="lnk45"><path d="M142.3,624.94 C182.54,656.94 247.37,714.82 282.29,779.7 C290.06,794.13 278.6,804.21 290.29,815.7 C315.2,840.21 347.7865,848.8745 380.8465,851.5645" fill="none" id="sec-to-gr" style="stroke:#181818;stroke-width:1;"/><polygon fill="#181818" points="385.83,851.97,377.184,847.2533,380.8465,851.5645,376.5352,855.2269,385.83,851.97" style="stroke:#181818;stroke-width:1;stroke-linejoin:miter;stroke-miterlimit:10;"/></g><!--link coord to cd--><g class="link" data-entity-1="ent0005" data-entity-2="ent0011" data-link-type="dependency" data-source-line="62" id="lnk46"><path d="M152.75,922.7 C205.85,922.7 289.94,922.7 357.86,922.7" fill="none" id="coord-to-cd" style="stroke:#181818;stroke-width:1;"/><polygon fill="#181818" points="362.86,922.7,353.86,918.7,357.86,922.7,353.86,926.7,362.86,922.7" style="stroke:#181818;stroke-width:1;stroke-linejoin:miter;stroke-miterlimit:10;"/></g><!--link coord to ct--><g class="link" data-entity-1="ent0005" data-entity-2="ent0012" data-link-type="dependency" data-source-line="63" id="lnk47"><path d="M152.75,932.5 C214.72,945.83 320.8017,968.6288 389.9517,983.4988" fill="none" id="coord-to-ct" style="stroke:#181818;stroke-width:1;"/><polygon fill="#181818" points="394.84,984.55,386.8821,978.7473,389.9517,983.4988,385.2002,986.5685,394.84,984.55" style="stroke:#181818;stroke-width:1;stroke-linejoin:miter;stroke-miterlimit:10;"/></g><!--link coord to analise--><g class="link" data-entity-1="ent0005" data-entity-2="ent0028" data-link-type="dependency" data-source-line="64" id="lnk48"><path d="M114.52,961.17 C137.98,1080.26 213.88,1440.2 290.29,1528.7 C318.55,1561.44 358.7985,1579.8742 394.7785,1591.4042" fill="none" id="coord-to-analise" style="stroke:#181818;stroke-width:1;"/><polygon fill="#181818" points="399.54,1592.93,392.19,1586.3743,394.7785,1591.4042,389.7486,1593.9927,399.54,1592.93" style="stroke:#181818;stroke-width:1;stroke-linejoin:miter;stroke-miterlimit:10;"/></g><!--link coord to na--><g class="link" data-entity-1="ent0005" data-entity-2="ent0014" data-link-type="dependency" data-source-line="65" id="lnk49"><path d="M152.83,890.31 C188.65,866.36 240.59,834.72 290.29,815.7 C323.21,803.1 356.7469,795.6554 388.3269,790.4354" fill="none" id="coord-to-na" style="stroke:#181818;stroke-width:1;"/><polygon fill="#181818" points="393.26,789.62,383.7282,787.1413,388.3269,790.4354,385.0328,795.0342,393.26,789.62" style="stroke:#181818;stroke-width:1;stroke-linejoin:miter;stroke-miterlimit:10;"/></g><!--link coord to gr--><g class="link" data-entity-1="ent0005" data-entity-2="ent0013" data-link-type="dependency" data-source-line="66" id="lnk50"><path d="M152.63,911.81 C172.99,907.02 197.31,901.43 219.29,896.7 C281.14,883.39 347.4794,870.3714 395.5194,861.1614" fill="none" id="coord-to-gr" style="stroke:#181818;stroke-width:1;"/><polygon fill="#181818" points="400.43,860.22,390.8378,857.9861,395.5194,861.1614,392.3441,865.843,400.43,860.22" style="stroke:#181818;stroke-width:1;stroke-linejoin:miter;stroke-miterlimit:10;"/></g><!--link prof to resSol--><g class="link" data-entity-1="ent0004" data-entity-2="ent0032" data-link-type="dependency" data-source-line="68" id="lnk51"><path d="M139.03,1390.37 C195.63,1402.22 309.856,1426.1158 384.876,1441.8158" fill="none" id="prof-to-resSol" style="stroke:#181818;stroke-width:1;"/><polygon fill="#181818" points="389.77,1442.84,381.7802,1437.0813,384.876,1441.8158,380.1415,1444.9116,389.77,1442.84" style="stroke:#181818;stroke-width:1;stroke-linejoin:miter;stroke-miterlimit:10;"/></g><!--link prof to gr--><g class="link" data-entity-1="ent0004" data-entity-2="ent0013" data-link-type="dependency" data-source-line="69" id="lnk52"><path d="M121.11,1345.38 C163.7,1228.56 289.13,884.7 290.29,883.7 C316.22,861.37 347.8949,852.8184 380.1349,849.5884" fill="none" id="prof-to-gr" style="stroke:#181818;stroke-width:1;"/><polygon fill="#181818" points="385.11,849.09,375.7561,846.0071,380.1349,849.5884,376.5536,853.9673,385.11,849.09" style="stroke:#181818;stroke-width:1;stroke-linejoin:miter;stroke-miterlimit:10;"/></g><!--link prof to checkin--><g class="link" data-entity-1="ent0004" data-entity-2="ent0033" data-link-type="dependency" data-source-line="70" id="lnk53"><path d="M139.03,1383.7 C193.53,1383.7 300.99,1383.7 376.23,1383.7" fill="none" id="prof-to-checkin" style="stroke:#181818;stroke-width:1;"/><polygon fill="#181818" points="381.23,1383.7,372.23,1379.7,376.23,1383.7,372.23,1387.7,381.23,1383.7" style="stroke:#181818;stroke-width:1;stroke-linejoin:miter;stroke-miterlimit:10;"/></g><!--link aln to rs--><g class="link" data-entity-1="ent0001" data-entity-2="ent0017" data-link-type="dependency" data-source-line="72" id="lnk54"><path d="M126.35,304.95 C205.7,345.74 512.39,487.99 694.74,352.7 C731.67,325.31 691.81,285.78 724.74,253.7 C740.14,238.71 756.1833,230.9275 776.9033,225.4975" fill="none" id="aln-to-rs" style="stroke:#181818;stroke-width:1;"/><polygon fill="#181818" points="781.74,224.23,772.02,222.6422,776.9033,225.4975,774.048,230.3809,781.74,224.23" style="stroke:#181818;stroke-width:1;stroke-linejoin:miter;stroke-miterlimit:10;"/></g><!--link aln to anxDoc--><g class="link" data-entity-1="ent0001" data-entity-2="ent0018" data-link-type="dependency" data-source-line="73" id="lnk55"><path d="M126.44,277.4 C158.23,249.85 224.64,196.24 290.29,167.7 C320.26,154.67 350.4795,147.0583 380.6695,141.6083" fill="none" id="aln-to-anxDoc" style="stroke:#181818;stroke-width:1;"/><polygon fill="#181818" points="385.59,140.72,376.0226,138.3825,380.6695,141.6083,377.4438,146.2552,385.59,140.72" style="stroke:#181818;stroke-width:1;stroke-linejoin:miter;stroke-miterlimit:10;"/></g><!--link aln to acomp--><g class="link" data-entity-1="ent0001" data-entity-2="ent0019" data-link-type="dependency" data-source-line="74" id="lnk56"><path d="M126.36,289.53 C159.68,280.6 230.36,261.78 290.29,246.7 C322.87,238.5 354.2674,230.8743 384.5474,223.6243" fill="none" id="aln-to-acomp" style="stroke:#181818;stroke-width:1;"/><polygon fill="#181818" points="389.41,222.46,379.726,220.6656,384.5474,223.6243,381.5888,228.4457,389.41,222.46" style="stroke:#181818;stroke-width:1;stroke-linejoin:miter;stroke-miterlimit:10;"/></g><!--link aln to login--><g class="link" data-entity-1="ent0001" data-entity-2="ent0015" data-link-type="dependency" data-source-line="75" id="lnk57"><path d="M124.03,332.93 C151.4,391.03 210.5,501.93 290.29,569.7 C326.64,600.57 373.0054,619.5727 408.8354,631.2327" fill="none" id="aln-to-login" style="stroke:#181818;stroke-width:1;"/><polygon fill="#181818" points="413.59,632.78,406.2696,626.1913,408.8354,631.2327,403.794,633.7986,413.59,632.78" style="stroke:#181818;stroke-width:1;stroke-linejoin:miter;stroke-miterlimit:10;"/></g><!--link aln to solicNotif--><g class="link" data-entity-1="ent0001" data-entity-2="ent0020" data-link-type="dependency" data-source-line="76" id="lnk58"><path d="M126.4,294.7 C162.18,294.7 236.85,294.7 308.9,294.7" fill="none" id="aln-to-solicNotif" style="stroke:#181818;stroke-width:1;"/><polygon fill="#181818" points="313.9,294.7,304.9,290.7,308.9,294.7,304.9,298.7,313.9,294.7" style="stroke:#181818;stroke-width:1;stroke-linejoin:miter;stroke-miterlimit:10;"/></g><!--link ca to cu--><g class="link" data-entity-1="ent0009" data-entity-2="ent0008" data-link-type="extension" data-source-line="78" id="lnk59"><path d="M387.77,1217.87 C337.29,1217.35 272.27,1206.83 239.79,1161.2 C200.1,1105.44 287.0978,1085.4472 364.5878,1076.9272" fill="none" id="ca-to-cu" style="stroke:#181818;stroke-width:1;"/><polygon fill="none" points="382.48,1074.96,363.9321,1070.9632,365.2436,1082.8913,382.48,1074.96" style="stroke:#181818;stroke-width:1;stroke-linejoin:miter;stroke-miterlimit:10;"/></g><!--link cp to cu--><g class="link" data-entity-1="ent0010" data-entity-2="ent0008" data-link-type="extension" data-source-line="79" id="lnk60"><path d="M457.02,1122.29 C457.02,1110.79 457.02,1117.28 457.02,1105.78" fill="none" id="cp-to-cu" style="stroke:#181818;stroke-width:1;"/><polygon fill="none" points="457.02,1087.78,451.02,1105.78,463.02,1105.78,457.02,1087.78" style="stroke:#181818;stroke-width:1;stroke-linejoin:miter;stroke-miterlimit:10;"/></g><!--link cd to mc--><g class="link" data-entity-1="ent0011" data-entity-2="ent0007" data-link-type="extension" data-source-line="80" id="lnk61"><path d="M363.15,924.27 C317.78,919.52 267.3,904.85 239.79,866.2 C213.76,829.63 213.76,801.77 239.79,765.2 C271.23,721.03 315.0873,709.9542 364.7773,708.5342" fill="none" id="cd-to-mc" style="stroke:#181818;stroke-width:1;"/><polygon fill="none" points="382.77,708.02,364.606,702.5366,364.9487,714.5317,382.77,708.02" style="stroke:#181818;stroke-width:1;stroke-linejoin:miter;stroke-miterlimit:10;"/></g><!--link ct to mc--><g class="link" data-entity-1="ent0012" data-entity-2="ent0007" data-link-type="extension" data-source-line="81" id="lnk62"><path d="M374.69,1001.62 C326.56,998.94 269.58,986.05 239.79,944.2 C193.65,879.39 193.65,830.01 239.79,765.2 C271.23,721.03 315.0873,709.9542 364.7773,708.5342" fill="none" id="ct-to-mc" style="stroke:#181818;stroke-width:1;"/><polygon fill="none" points="382.77,708.02,364.606,702.5366,364.9487,714.5317,382.77,708.02" style="stroke:#181818;stroke-width:1;stroke-linejoin:miter;stroke-miterlimit:10;"/></g><!--link cu to mc--><g class="link" data-entity-1="ent0008" data-entity-2="ent0007" data-link-type="extension" data-source-line="82" id="lnk63"><path d="M381.7,1074.35 C332.2,1072.8 271.01,1061.06 239.79,1017.2 C174.84,925.95 174.84,856.45 239.79,765.2 C271.23,721.03 315.0873,709.9542 364.7773,708.5342" fill="none" id="cu-to-mc" style="stroke:#181818;stroke-width:1;"/><polygon fill="none" points="382.77,708.02,364.606,702.5366,364.9487,714.5317,382.77,708.02" style="stroke:#181818;stroke-width:1;stroke-linejoin:miter;stroke-miterlimit:10;"/></g><!--link encSol to validDoc--><g class="link" data-entity-1="ent0026" data-entity-2="ent0025" data-link-type="dependency" data-source-line="84" id="lnk64"><path d="M550.66,530.39 C616.34,528.76 699.0215,526.6943 764.1915,525.0743" fill="none" id="encSol-to-validDoc" style="stroke:#181818;stroke-width:1;stroke-dasharray:7,7;"/><polygon fill="#181818" points="769.19,524.95,760.0934,521.1749,764.1915,525.0743,760.2922,529.1724,769.19,524.95" style="stroke:#181818;stroke-width:1;stroke-linejoin:miter;stroke-miterlimit:10;"/><text fill="#000000" font-family="sans-serif" font-size="13" lengthAdjust="spacing" textLength="63.0068" x="630.74" y="523.7669">&#171;include&#187;</text></g><!--link anxDoc to rs--><g class="link" data-entity-1="ent0018" data-entity-2="ent0017" data-link-type="dependency" data-source-line="86" id="lnk65"><path d="M523.29,142.75 C570.95,151.08 637.04,163.18 694.74,175.7 C731.21,183.62 767.0681,192.4726 798.8981,200.6726" fill="none" id="anxDoc-to-rs" style="stroke:#181818;stroke-width:1;stroke-dasharray:7,7;"/><polygon fill="#181818" points="803.74,201.92,796.0225,195.8012,798.8981,200.6726,794.0267,203.5483,803.74,201.92" style="stroke:#181818;stroke-width:1;stroke-linejoin:miter;stroke-miterlimit:10;"/><text fill="#000000" font-family="sans-serif" font-size="13" lengthAdjust="spacing" textLength="61.1851" x="631.74" y="158.7669">&#171;extend&#187;</text></g><!--link aprovSol to analise--><g class="link" data-entity-1="ent0029" data-entity-2="ent0028" data-link-type="dependency" data-source-line="88" id="lnk66"><path d="M165.54,1666.65 C229.16,1653.52 325.5833,1633.621 390.1933,1620.281" fill="none" id="aprovSol-to-analise" style="stroke:#181818;stroke-width:1;stroke-dasharray:7,7;"/><polygon fill="#181818" points="395.09,1619.27,385.4671,1617.1725,390.1933,1620.281,387.0847,1625.0072,395.09,1619.27" style="stroke:#181818;stroke-width:1;stroke-linejoin:miter;stroke-miterlimit:10;"/><text fill="#000000" font-family="sans-serif" font-size="13" lengthAdjust="spacing" textLength="61.1851" x="220.29" y="1638.7669">&#171;extend&#187;</text></g><!--link reprSol to analise--><g class="link" data-entity-1="ent0030" data-entity-2="ent0028" data-link-type="dependency" data-source-line="89" id="lnk67"><path d="M189.38,1606.7 C245.38,1606.7 314.18,1606.7 369.93,1606.7" fill="none" id="reprSol-to-analise" style="stroke:#181818;stroke-width:1;stroke-dasharray:7,7;"/><polygon fill="#181818" points="374.93,1606.7,365.93,1602.7,369.93,1606.7,365.93,1610.7,374.93,1606.7" style="stroke:#181818;stroke-width:1;stroke-linejoin:miter;stroke-miterlimit:10;"/><text fill="#000000" font-family="sans-serif" font-size="13" lengthAdjust="spacing" textLength="61.1851" x="220.29" y="1602.7669">&#171;extend&#187;</text></g><!--link solicNotif to emailNotif--><g class="link" data-entity-1="ent0020" data-entity-2="ent0021" data-link-type="dependency" data-source-line="91" id="lnk68"><path d="M600.18,295.41 C647.34,295.64 694.2401,295.8755 739.1401,296.0955" fill="none" id="solicNotif-to-emailNotif" style="stroke:#181818;stroke-width:1;stroke-dasharray:7,7;"/><polygon fill="#181818" points="744.14,296.12,735.1597,292.076,739.1401,296.0955,735.1205,300.0759,744.14,296.12" style="stroke:#181818;stroke-width:1;stroke-linejoin:miter;stroke-miterlimit:10;"/><text fill="#000000" font-family="sans-serif" font-size="13" lengthAdjust="spacing" textLength="61.1851" x="631.74" y="291.7669">&#171;extend&#187;</text></g><!--link solicNotif to smsNotif--><g class="link" data-entity-1="ent0020" data-entity-2="ent0022" data-link-type="dependency" data-source-line="92" id="lnk69"><path d="M539.68,269.03 C586.63,252.65 645.81,229.15 694.74,200.7 C708.82,192.52 710.13,186.87 724.74,179.7 C743.68,170.41 760.3451,164.1033 780.4651,157.8533" fill="none" id="solicNotif-to-smsNotif" style="stroke:#181818;stroke-width:1;stroke-dasharray:7,7;"/><polygon fill="#181818" points="785.24,156.37,775.4585,155.2199,780.4651,157.8533,777.8317,162.8598,785.24,156.37" style="stroke:#181818;stroke-width:1;stroke-linejoin:miter;stroke-miterlimit:10;"/><text fill="#000000" font-family="sans-serif" font-size="13" lengthAdjust="spacing" textLength="61.1851" x="631.74" y="196.7669">&#171;extend&#187;</text></g><!--link solicNotif to pushNotif--><g class="link" data-entity-1="ent0020" data-entity-2="ent0023" data-link-type="dependency" data-source-line="93" id="lnk70"><path d="M558.85,316.79 C626.7,331.66 710.1059,349.9399 773.4559,363.8199" fill="none" id="solicNotif-to-pushNotif" style="stroke:#181818;stroke-width:1;stroke-dasharray:7,7;"/><polygon fill="#181818" points="778.34,364.89,770.4046,359.0565,773.4559,363.8199,768.6924,366.8711,778.34,364.89" style="stroke:#181818;stroke-width:1;stroke-linejoin:miter;stroke-miterlimit:10;"/><text fill="#000000" font-family="sans-serif" font-size="13" lengthAdjust="spacing" textLength="61.1851" x="631.74" y="329.7669">&#171;extend&#187;</text></g><!--link checkin to regChegada--><g class="link" data-entity-1="ent0033" data-entity-2="ent0034" data-link-type="dependency" data-source-line="95" id="lnk71"><path d="M524.81,1391.59 C556.56,1395.11 595.07,1399.06 629.74,1401.7 C668.39,1404.65 705.7651,1406.7136 743.4851,1408.4236" fill="none" id="checkin-to-regChegada" style="stroke:#181818;stroke-width:1;stroke-dasharray:7,7;"/><polygon fill="#181818" points="748.48,1408.65,739.6704,1404.2465,743.4851,1408.4236,739.3081,1412.2383,748.48,1408.65" style="stroke:#181818;stroke-width:1;stroke-linejoin:miter;stroke-miterlimit:10;"/><text fill="#000000" font-family="sans-serif" font-size="13" lengthAdjust="spacing" textLength="61.1851" x="631.74" y="1397.7669">&#171;extend&#187;</text></g><!--link checkin to viewPonto--><g class="link" data-entity-1="ent0033" data-entity-2="ent0035" data-link-type="dependency" data-source-line="96" id="lnk72"><path d="M522.54,1374.86 C588.96,1365.77 688.0662,1352.1982 763.0062,1341.9382" fill="none" id="checkin-to-viewPonto" style="stroke:#181818;stroke-width:1;stroke-dasharray:7,7;"/><polygon fill="#181818" points="767.96,1341.26,758.5006,1338.5178,763.0062,1341.9382,759.5858,1346.4438,767.96,1341.26" style="stroke:#181818;stroke-width:1;stroke-linejoin:miter;stroke-miterlimit:10;"/><text fill="#000000" font-family="sans-serif" font-size="13" lengthAdjust="spacing" textLength="61.1851" x="631.74" y="1349.7669">&#171;extend&#187;</text></g><!--link checkin to verifSala--><g class="link" data-entity-1="ent0033" data-entity-2="ent0036" data-link-type="dependency" data-source-line="97" id="lnk73"><path d="M514.51,1395.37 C540.72,1401.37 572.13,1409.38 599.74,1418.7 C613.51,1423.35 616.02,1426.93 629.74,1431.7 C684.75,1450.79 744.0448,1466.2069 790.5848,1477.2369" fill="none" id="checkin-to-verifSala" style="stroke:#181818;stroke-width:1;stroke-dasharray:7,7;"/><polygon fill="#181818" points="795.45,1478.39,787.615,1472.4223,790.5848,1477.2369,785.7701,1480.2067,795.45,1478.39" style="stroke:#181818;stroke-width:1;stroke-linejoin:miter;stroke-miterlimit:10;"/><text fill="#000000" font-family="sans-serif" font-size="13" lengthAdjust="spacing" textLength="63.0068" x="630.74" y="1427.7669">&#171;include&#187;</text></g><!--link verifSala to confSalaOk--><g class="link" data-entity-1="ent0036" data-entity-2="ent0037" data-link-type="dependency" data-source-line="99" id="lnk74"><path d="M950.09,1490.68 C1002.51,1489.48 1063.8013,1488.0836 1116.5913,1486.8836" fill="none" id="verifSala-to-confSalaOk" style="stroke:#181818;stroke-width:1;stroke-dasharray:7,7;"/><polygon fill="#181818" points="1121.59,1486.77,1112.5014,1482.9756,1116.5913,1486.8836,1112.6832,1490.9735,1121.59,1486.77" style="stroke:#181818;stroke-width:1;stroke-linejoin:miter;stroke-miterlimit:10;"/><text fill="#000000" font-family="sans-serif" font-size="13" lengthAdjust="spacing" textLength="61.1851" x="1027.55" y="1483.7669">&#171;extend&#187;</text></g><!--link verifSala to reportSalaErrada--><g class="link" data-entity-1="ent0036" data-entity-2="ent0038" data-link-type="dependency" data-source-line="100" id="lnk75"><path d="M923.1,1477.8 C986.22,1462.49 1079.181,1439.9489 1143.231,1424.4089" fill="none" id="verifSala-to-reportSalaErrada" style="stroke:#181818;stroke-width:1;stroke-dasharray:7,7;"/><polygon fill="#181818" points="1148.09,1423.23,1138.4006,1421.4648,1143.231,1424.4089,1140.2869,1429.2393,1148.09,1423.23" style="stroke:#181818;stroke-width:1;stroke-linejoin:miter;stroke-miterlimit:10;"/><text fill="#000000" font-family="sans-serif" font-size="13" lengthAdjust="spacing" textLength="61.1851" x="1027.55" y="1433.7669">&#171;extend&#187;</text></g><!--link reportSalaErrada to solicRealocacao--><g class="link" data-entity-1="ent0038" data-entity-2="ent0039" data-link-type="dependency" data-source-line="102" id="lnk76"><path d="M1307,1407.7 C1345.81,1407.7 1386.13,1407.7 1426.32,1407.7" fill="none" id="reportSalaErrada-to-solicRealocacao" style="stroke:#181818;stroke-width:1;stroke-dasharray:7,7;"/><polygon fill="#181818" points="1431.32,1407.7,1422.32,1403.7,1426.32,1407.7,1422.32,1411.7,1431.32,1407.7" style="stroke:#181818;stroke-width:1;stroke-linejoin:miter;stroke-miterlimit:10;"/><text fill="#000000" font-family="sans-serif" font-size="13" lengthAdjust="spacing" textLength="63.0068" x="1337.74" y="1403.7669">&#171;include&#187;</text></g><!--link GMN77 to verifSala--><g class="link" data-entity-1="ent0078" data-entity-2="ent0036" data-link-type="association" data-source-line="105" id="lnk79"><path d="M729,61.8 C702.71,73.61 678.28,90.38 662.24,114.2 C621.16,175.21 617.79,1379.59 662.24,1438.2 C687.5,1471.5 731.11,1485.74 771.03,1491.4" fill="none" id="GMN77-verifSala" style="stroke:#181818;stroke-width:1;stroke-dasharray:7,7;"/></g><!--link GMN80 to login--><g class="link" data-entity-1="ent0081" data-entity-2="ent0015" data-link-type="association" data-source-line="111" id="lnk82"><path d="M361.85,44.11 C317.02,54.34 267.41,74.5 239.79,114.2 C184.19,194.09 186.11,471 239.79,552.2 C274.71,605.03 346.6,627.78 398.12,637.52" fill="none" id="GMN80-login" style="stroke:#181818;stroke-width:1;stroke-dasharray:7,7;"/></g><?plantuml-src ZLPBRXmv3DtNARJCB3e7Q0G63CS83EG7Dv0z8R6x1LT9DPAgnvDaxZ915a4MMSqH-c93aLBzt0bY6B2ezqXH5FdABUwJIbu5UpWcPMn0dQntJNomheS0dUf1Fy01T-dl5bM6mHrQR9hjTJiulrKG5RIEJDDPPsCASFvs_be0qpNR7Ug02O85tekec-txuFSOem-yrPFLR6-y3mRTp5tddQOf6QWx5vDDWsM2-jGe-dds1bp2e3GOeBDz_2CxTbh06zc5e8OudBy4wndMmng6V1V1O8trDLV1-mNkbK4gMzIsRwq3ELwRfvmqXAx2IU1NcCC7R26T_wFS13q4GT_wPFTMr-G4T2MxUuJMVYIizGVh6E9LyyzKBdwVkroTFMYizRh7WvLxHTzQRPFKcqE4A9nhXuz4C5uF7Rea8BZ7bxxKzLhxhWTtl1W5CYYyNG63wj1o6LovbRnX7t2FmHfWHmx5rnRlswXzUwJ7NJdveB03sx8JhtxFQVTc9-TqyVSS-Y4UsICln6LMtwcldnJv0xsEcLLmLfrJXiP2tZeDD3QN2ubEKm7dHzOHqV3qOQyTHOwNNuGX5DvBBlb56dNwAP_8l3jdVieCs8TLQkD4N-Yus7iATZbG70ySUreVKJziIbkpGOszQjwZ3ppFkQU8Se3IGm4FDsAMbx1nA663EBCB9LJQ-cJnh_VPAdowiKnTX1PoWvx8IMAVChQZxJBTtkqj3NMXQXzoEqZI16NYkuUQDxLJgaphvjp0M6RVXZ3cFKrEeBBusfMKUWunZSkzeDGG-J58RzLcSvNrhov9JXgIN5wFlLStIeTLazIbBhCRoozR96Wp8ysCsbhJ3WMPZ1mcwoSRvR57cy1nNP-veM-9aEEuBCepcgmlrHBPgzPCGXeDQlFvAekzxiULuHNLHwTnDTHL8_LGpvzFjL9RzU85lLWx6Bowelmu6QQ4o20-9dI6iJ90Z9RAB2bbS7vEQAORC6cIjoLlHQkIzalIg6Ah8qljvKxZ_2n9SyuuCh-Wr55Pbsy2CcsQasMe9Miz8Qlqdy1SaELmhDCWhQTFikyLjTzyhDzDNtkQjHCAA7g02dZuY4OVV5AGyuyJjZBted3g_EzIDeZg_AHLf9FEWF7KPoP_Rd2PYBIoKg_pNtN-Jc7EtpS1_nnij5Jj_FyOmIIjb1ybaxpnKUNV8V_dGv26I2ObCX31U1Kf2UgWyRp_0G00?></g></svg>