<svg xmlns="http://www.w3.org/2000/svg" xmlns:xlink="http://www.w3.org/1999/xlink" contentStyleType="text/css" data-diagram-type="DESCRIPTION" height="790px" preserveAspectRatio="none" style="width:758px;height:790px;background:#FFFFFF;" version="1.1" viewBox="0 0 758 790" width="758px" zoomAndPan="magnify"><?plantuml 1.2026.7beta1?><defs/><g><g class="title" data-source-line="1"><text fill="#000000" font-family="sans-serif" font-size="14" font-weight="700" lengthAdjust="spacing" textLength="481.7559" x="134.6221" y="22.9951">Diagrama de Componentes por Camadas - Versao Academica</text></g><!--cluster Apresentacao--><g class="cluster" data-qualified-name="Apresentacao" data-source-line="3" id="ent0001"><rect fill="none" height="97.29" rx="2.5" ry="2.5" style="stroke:#181818;stroke-width:1;" width="241" x="197" y="144.0969"/><text fill="#000000" font-family="sans-serif" font-size="14" font-weight="700" lengthAdjust="spacing" textLength="225.4629" x="204.7686" y="159.092">CAMADA DE APRESENTACAO</text></g><!--cluster Aplicacao--><g class="cluster" data-qualified-name="Aplicacao" data-source-line="7" id="ent0003"><rect fill="none" height="113.6" rx="2.5" ry="2.5" style="stroke:#181818;stroke-width:1;" width="479" x="77" y="265.3869"/><text fill="#000000" font-family="sans-serif" font-size="14" font-weight="700" lengthAdjust="spacing" textLength="293.6855" x="169.6572" y="280.382">CAMADA DE APLICACAO (Controllers)</text></g><!--cluster Negocio--><g class="cluster" data-qualified-name="Negocio" data-source-line="13" id="ent0007"><rect fill="none" height="236.19" rx="2.5" ry="2.5" style="stroke:#181818;stroke-width:1;" width="457" x="77" y="402.9869"/><text fill="#000000" font-family="sans-serif" font-size="14" font-weight="700" lengthAdjust="spacing" textLength="255.5273" x="177.7363" y="417.982">CAMADA DE NEGOCIO (Services)</text></g><!--cluster Dados--><g class="cluster" data-qualified-name="Dados" data-source-line="22" id="ent0014"><rect fill="none" height="113.6" rx="2.5" ry="2.5" style="stroke:#181818;stroke-width:1;" width="186" x="558" y="525.5769"/><text fill="#000000" font-family="sans-serif" font-size="14" font-weight="700" lengthAdjust="spacing" textLength="155.3262" x="573.3369" y="540.572">CAMADA DE DADOS</text></g><!--cluster Externo--><g class="cluster" data-qualified-name="Externo" data-source-line="26" id="ent0016"><rect fill="none" height="113.59" rx="2.5" ry="2.5" style="stroke:#181818;stroke-width:1;" width="494" x="7" y="663.1769"/><text fill="#000000" font-family="sans-serif" font-size="14" font-weight="700" lengthAdjust="spacing" textLength="167.5557" x="170.2222" y="678.172">SERVICOS EXTERNOS</text></g><!--entity Web--><g class="entity" data-qualified-name="Apresentacao.Web" data-source-line="4" id="ent0002"><rect fill="#F1F1F1" height="46.2969" rx="2.5" ry="2.5" style="stroke:#181818;stroke-width:0.5;" width="138.4717" x="247.76" y="179.0969"/><rect fill="#F1F1F1" height="10" style="stroke:#181818;stroke-width:0.5;" width="15" x="366.2317" y="184.0969"/><rect fill="#F1F1F1" height="2" style="stroke:#181818;stroke-width:0.5;" width="4" x="364.2317" y="186.0969"/><rect fill="#F1F1F1" height="2" style="stroke:#181818;stroke-width:0.5;" width="4" x="364.2317" y="190.0969"/><text fill="#000000" font-family="sans-serif" font-size="14" lengthAdjust="spacing" textLength="98.4717" x="262.76" y="212.092">Interface Web</text></g><!--entity CtrlSol--><g class="entity" data-qualified-name="Aplicacao.CtrlSol" data-source-line="8" id="ent0004"><rect fill="#F1F1F1" height="62.5938" rx="2.5" ry="2.5" style="stroke:#181818;stroke-width:0.5;" width="123.0566" x="93.47" y="300.3869"/><rect fill="#F1F1F1" height="10" style="stroke:#181818;stroke-width:0.5;" width="15" x="196.5266" y="305.3869"/><rect fill="#F1F1F1" height="2" style="stroke:#181818;stroke-width:0.5;" width="4" x="194.5266" y="307.3869"/><rect fill="#F1F1F1" height="2" style="stroke:#181818;stroke-width:0.5;" width="4" x="194.5266" y="311.3869"/><text fill="#000000" font-family="sans-serif" font-size="14" lengthAdjust="spacing" textLength="82.7012" x="108.47" y="333.382">Controlador</text><text fill="#000000" font-family="sans-serif" font-size="14" lengthAdjust="spacing" textLength="83.0566" x="108.47" y="349.6789">Solicitacoes</text></g><!--entity CtrlAuth--><g class="entity" data-qualified-name="Aplicacao.CtrlAuth" data-source-line="9" id="ent0005"><rect fill="#F1F1F1" height="62.5938" rx="2.5" ry="2.5" style="stroke:#181818;stroke-width:0.5;" width="131.9229" x="251.04" y="300.3869"/><rect fill="#F1F1F1" height="10" style="stroke:#181818;stroke-width:0.5;" width="15" x="362.9629" y="305.3869"/><rect fill="#F1F1F1" height="2" style="stroke:#181818;stroke-width:0.5;" width="4" x="360.9629" y="307.3869"/><rect fill="#F1F1F1" height="2" style="stroke:#181818;stroke-width:0.5;" width="4" x="360.9629" y="311.3869"/><text fill="#000000" font-family="sans-serif" font-size="14" lengthAdjust="spacing" textLength="82.7012" x="266.04" y="333.382">Controlador</text><text fill="#000000" font-family="sans-serif" font-size="14" lengthAdjust="spacing" textLength="91.9229" x="266.04" y="349.6789">Autenticacao</text></g><!--entity CtrlCheck--><g class="entity" data-qualified-name="Aplicacao.CtrlCheck" data-source-line="10" id="ent0006"><rect fill="#F1F1F1" height="62.5938" rx="2.5" ry="2.5" style="stroke:#181818;stroke-width:0.5;" width="122.7012" x="417.65" y="300.3869"/><rect fill="#F1F1F1" height="10" style="stroke:#181818;stroke-width:0.5;" width="15" x="520.3512" y="305.3869"/><rect fill="#F1F1F1" height="2" style="stroke:#181818;stroke-width:0.5;" width="4" x="518.3512" y="307.3869"/><rect fill="#F1F1F1" height="2" style="stroke:#181818;stroke-width:0.5;" width="4" x="518.3512" y="311.3869"/><text fill="#000000" font-family="sans-serif" font-size="14" lengthAdjust="spacing" textLength="82.7012" x="432.65" y="333.382">Controlador</text><text fill="#000000" font-family="sans-serif" font-size="14" lengthAdjust="spacing" textLength="60.8809" x="432.65" y="349.6789">Check-in</text></g><!--entity SvcSol--><g class="entity" data-qualified-name="Negocio.SvcSol" data-source-line="14" id="ent0008"><rect fill="#F1F1F1" height="62.5938" rx="2.5" ry="2.5" style="stroke:#181818;stroke-width:0.5;" width="123.0566" x="93.47" y="437.9869"/><rect fill="#F1F1F1" height="10" style="stroke:#181818;stroke-width:0.5;" width="15" x="196.5266" y="442.9869"/><rect fill="#F1F1F1" height="2" style="stroke:#181818;stroke-width:0.5;" width="4" x="194.5266" y="444.9869"/><rect fill="#F1F1F1" height="2" style="stroke:#181818;stroke-width:0.5;" width="4" x="194.5266" y="448.9869"/><text fill="#000000" font-family="sans-serif" font-size="14" lengthAdjust="spacing" textLength="51.6934" x="108.47" y="470.982">Servico</text><text fill="#000000" font-family="sans-serif" font-size="14" lengthAdjust="spacing" textLength="83.0566" x="108.47" y="487.2789">Solicitacoes</text></g><!--entity SvcAuth--><g class="entity" data-qualified-name="Negocio.SvcAuth" data-source-line="15" id="ent0009"><rect fill="#F1F1F1" height="62.5938" rx="2.5" ry="2.5" style="stroke:#181818;stroke-width:0.5;" width="131.9229" x="251.04" y="437.9869"/><rect fill="#F1F1F1" height="10" style="stroke:#181818;stroke-width:0.5;" width="15" x="362.9629" y="442.9869"/><rect fill="#F1F1F1" height="2" style="stroke:#181818;stroke-width:0.5;" width="4" x="360.9629" y="444.9869"/><rect fill="#F1F1F1" height="2" style="stroke:#181818;stroke-width:0.5;" width="4" x="360.9629" y="448.9869"/><text fill="#000000" font-family="sans-serif" font-size="14" lengthAdjust="spacing" textLength="51.6934" x="266.04" y="470.982">Servico</text><text fill="#000000" font-family="sans-serif" font-size="14" lengthAdjust="spacing" textLength="91.9229" x="266.04" y="487.2789">Autenticacao</text></g><!--entity SvcCheck--><g class="entity" data-qualified-name="Negocio.SvcCheck" data-source-line="16" id="ent0010"><rect fill="#F1F1F1" height="62.5938" rx="2.5" ry="2.5" style="stroke:#181818;stroke-width:0.5;" width="100.8809" x="417.56" y="437.9869"/><rect fill="#F1F1F1" height="10" style="stroke:#181818;stroke-width:0.5;" width="15" x="498.4409" y="442.9869"/><rect fill="#F1F1F1" height="2" style="stroke:#181818;stroke-width:0.5;" width="4" x="496.4409" y="444.9869"/><rect fill="#F1F1F1" height="2" style="stroke:#181818;stroke-width:0.5;" width="4" x="496.4409" y="448.9869"/><text fill="#000000" font-family="sans-serif" font-size="14" lengthAdjust="spacing" textLength="51.6934" x="432.56" y="470.982">Servico</text><text fill="#000000" font-family="sans-serif" font-size="14" lengthAdjust="spacing" textLength="60.8809" x="432.56" y="487.2789">Check-in</text></g><!--entity SvcNotif--><g class="entity" data-qualified-name="Negocio.SvcNotif" data-source-line="17" id="ent0011"><rect fill="#F1F1F1" height="62.5938" rx="2.5" ry="2.5" style="stroke:#181818;stroke-width:0.5;" width="125.6816" x="93.16" y="560.5769"/><rect fill="#F1F1F1" height="10" style="stroke:#181818;stroke-width:0.5;" width="15" x="198.8416" y="565.5769"/><rect fill="#F1F1F1" height="2" style="stroke:#181818;stroke-width:0.5;" width="4" x="196.8416" y="567.5769"/><rect fill="#F1F1F1" height="2" style="stroke:#181818;stroke-width:0.5;" width="4" x="196.8416" y="571.5769"/><text fill="#000000" font-family="sans-serif" font-size="14" lengthAdjust="spacing" textLength="51.6934" x="108.16" y="593.572">Servico</text><text fill="#000000" font-family="sans-serif" font-size="14" lengthAdjust="spacing" textLength="85.6816" x="108.16" y="609.8689">Notificacoes</text></g><!--entity SvcGrupo--><g class="entity" data-qualified-name="Negocio.SvcGrupo" data-source-line="18" id="ent0012"><rect fill="#F1F1F1" height="62.5938" rx="2.5" ry="2.5" style="stroke:#181818;stroke-width:0.5;" width="91.6934" x="254.15" y="560.5769"/><rect fill="#F1F1F1" height="10" style="stroke:#181818;stroke-width:0.5;" width="15" x="325.8434" y="565.5769"/><rect fill="#F1F1F1" height="2" style="stroke:#181818;stroke-width:0.5;" width="4" x="323.8434" y="567.5769"/><rect fill="#F1F1F1" height="2" style="stroke:#181818;stroke-width:0.5;" width="4" x="323.8434" y="571.5769"/><text fill="#000000" font-family="sans-serif" font-size="14" lengthAdjust="spacing" textLength="51.6934" x="269.15" y="593.572">Servico</text><text fill="#000000" font-family="sans-serif" font-size="14" lengthAdjust="spacing" textLength="50.2236" x="269.15" y="609.8689">Grupos</text></g><!--entity SvcDoc--><g class="entity" data-qualified-name="Negocio.SvcDoc" data-source-line="19" id="ent0013"><rect fill="#F1F1F1" height="62.5938" rx="2.5" ry="2.5" style="stroke:#181818;stroke-width:0.5;" width="128.3887" x="380.81" y="560.5769"/><rect fill="#F1F1F1" height="10" style="stroke:#181818;stroke-width:0.5;" width="15" x="489.1987" y="565.5769"/><rect fill="#F1F1F1" height="2" style="stroke:#181818;stroke-width:0.5;" width="4" x="487.1987" y="567.5769"/><rect fill="#F1F1F1" height="2" style="stroke:#181818;stroke-width:0.5;" width="4" x="487.1987" y="571.5769"/><text fill="#000000" font-family="sans-serif" font-size="14" lengthAdjust="spacing" textLength="51.6934" x="395.81" y="593.572">Servico</text><text fill="#000000" font-family="sans-serif" font-size="14" lengthAdjust="spacing" textLength="88.3887" x="395.81" y="609.8689">Documentos</text></g><!--entity DB--><g class="entity" data-qualified-name="Dados.DB" data-source-line="23" id="ent0015"><rect fill="#F1F1F1" height="62.5938" rx="2.5" ry="2.5" style="stroke:#181818;stroke-width:0.5;" width="153.8252" x="574.09" y="560.5769"/><rect fill="#F1F1F1" height="10" style="stroke:#181818;stroke-width:0.5;" width="15" x="707.9152" y="565.5769"/><rect fill="#F1F1F1" height="2" style="stroke:#181818;stroke-width:0.5;" width="4" x="705.9152" y="567.5769"/><rect fill="#F1F1F1" height="2" style="stroke:#181818;stroke-width:0.5;" width="4" x="705.9152" y="571.5769"/><text fill="#000000" font-family="sans-serif" font-size="14" lengthAdjust="spacing" textLength="113.8252" x="589.09" y="593.572">Banco de Dados</text><text fill="#000000" font-family="sans-serif" font-size="14" lengthAdjust="spacing" textLength="72.3037" x="589.09" y="609.8689">Relacional</text></g><!--entity Email--><g class="entity" data-qualified-name="Externo.Email" data-source-line="27" id="ent0017"><rect fill="#F1F1F1" height="46.2969" rx="2.5" ry="2.5" style="stroke:#181818;stroke-width:0.5;" width="78.8418" x="22.58" y="706.3169"/><rect fill="#F1F1F1" height="10" style="stroke:#181818;stroke-width:0.5;" width="15" x="81.4218" y="711.3169"/><rect fill="#F1F1F1" height="2" style="stroke:#181818;stroke-width:0.5;" width="4" x="79.4218" y="713.3169"/><rect fill="#F1F1F1" height="2" style="stroke:#181818;stroke-width:0.5;" width="4" x="79.4218" y="717.3169"/><text fill="#000000" font-family="sans-serif" font-size="14" lengthAdjust="spacing" textLength="38.8418" x="37.58" y="739.312">Email</text></g><!--entity Zap--><g class="entity" data-qualified-name="Externo.Zap" data-source-line="28" id="ent0018"><rect fill="#F1F1F1" height="62.5938" rx="2.5" ry="2.5" style="stroke:#181818;stroke-width:0.5;" width="111.4287" x="244.29" y="698.1769"/><rect fill="#F1F1F1" height="10" style="stroke:#181818;stroke-width:0.5;" width="15" x="335.7187" y="703.1769"/><rect fill="#F1F1F1" height="2" style="stroke:#181818;stroke-width:0.5;" width="4" x="333.7187" y="705.1769"/><rect fill="#F1F1F1" height="2" style="stroke:#181818;stroke-width:0.5;" width="4" x="333.7187" y="709.1769"/><text fill="#000000" font-family="sans-serif" font-size="14" lengthAdjust="spacing" textLength="71.4287" x="259.29" y="731.172">WhatsApp</text><text fill="#000000" font-family="sans-serif" font-size="14" lengthAdjust="spacing" textLength="22.1484" x="259.29" y="747.4689">API</text></g><!--entity Storage--><g class="entity" data-qualified-name="Externo.Storage" data-source-line="29" id="ent0019"><rect fill="#F1F1F1" height="62.5938" rx="2.5" ry="2.5" style="stroke:#181818;stroke-width:0.5;" width="94.7764" x="390.61" y="698.1769"/><rect fill="#F1F1F1" height="10" style="stroke:#181818;stroke-width:0.5;" width="15" x="465.3864" y="703.1769"/><rect fill="#F1F1F1" height="2" style="stroke:#181818;stroke-width:0.5;" width="4" x="463.3864" y="705.1769"/><rect fill="#F1F1F1" height="2" style="stroke:#181818;stroke-width:0.5;" width="4" x="463.3864" y="709.1769"/><text fill="#000000" font-family="sans-serif" font-size="14" lengthAdjust="spacing" textLength="39.9902" x="405.61" y="731.172">Cloud</text><text fill="#000000" font-family="sans-serif" font-size="14" lengthAdjust="spacing" textLength="54.7764" x="405.61" y="747.4689">Storage</text></g><!--entity Push--><g class="entity" data-qualified-name="Externo.Push" data-source-line="30" id="ent0020"><rect fill="#F1F1F1" height="46.2969" rx="2.5" ry="2.5" style="stroke:#181818;stroke-width:0.5;" width="73.4824" x="136.26" y="706.3169"/><rect fill="#F1F1F1" height="10" style="stroke:#181818;stroke-width:0.5;" width="15" x="189.7424" y="711.3169"/><rect fill="#F1F1F1" height="2" style="stroke:#181818;stroke-width:0.5;" width="4" x="187.7424" y="713.3169"/><rect fill="#F1F1F1" height="2" style="stroke:#181818;stroke-width:0.5;" width="4" x="187.7424" y="717.3169"/><text fill="#000000" font-family="sans-serif" font-size="14" lengthAdjust="spacing" textLength="33.4824" x="151.26" y="739.312">Push</text></g><!--entity Aluno--><g class="entity" data-qualified-name="Aluno" data-source-line="56" id="ent0038"><ellipse cx="229.9992" cy="51.2969" fill="#F1F1F1" rx="8" ry="8" style="stroke:#181818;stroke-width:0.5;"/><path d="M229.9992,59.2969 L229.9992,86.2969 M216.9992,67.2969 L242.9992,67.2969 M229.9992,86.2969 L216.9992,101.2969 M229.9992,86.2969 L242.9992,101.2969" fill="none" style="stroke:#181818;stroke-width:0.5;"/><text fill="#000000" font-family="sans-serif" font-size="14" lengthAdjust="spacing" textLength="39.7783" x="210.11" y="115.792">Aluno</text></g><!--entity Professor--><g class="entity" data-qualified-name="Professor" data-source-line="57" id="ent0039"><ellipse cx="316.9974" cy="51.2969" fill="#F1F1F1" rx="8" ry="8" style="stroke:#181818;stroke-width:0.5;"/><path d="M316.9974,59.2969 L316.9974,86.2969 M303.9974,67.2969 L329.9974,67.2969 M316.9974,86.2969 L303.9974,101.2969 M316.9974,86.2969 L329.9974,101.2969" fill="none" style="stroke:#181818;stroke-width:0.5;"/><text fill="#000000" font-family="sans-serif" font-size="14" lengthAdjust="spacing" textLength="65.2148" x="284.39" y="115.792">Professor</text></g><!--entity Secretaria--><g class="entity" data-qualified-name="Secretaria" data-source-line="58" id="ent0040"><ellipse cx="420.9997" cy="51.2969" fill="#F1F1F1" rx="8" ry="8" style="stroke:#181818;stroke-width:0.5;"/><path d="M420.9997,59.2969 L420.9997,86.2969 M407.9997,67.2969 L433.9997,67.2969 M420.9997,86.2969 L407.9997,101.2969 M420.9997,86.2969 L433.9997,101.2969" fill="none" style="stroke:#181818;stroke-width:0.5;"/><text fill="#000000" font-family="sans-serif" font-size="14" lengthAdjust="spacing" textLength="71.8594" x="385.07" y="115.792">Secretaria</text></g><!--link Web to CtrlSol--><g class="link" data-entity-1="ent0002" data-entity-2="ent0004" data-link-type="dependency" data-source-line="33" id="lnk21"><path d="M279.71,225.6669 C265.07,234.9569 248.37,246.1669 234,257.3869 C217.19,270.5169 203.2969,283.0242 189.0469,296.7042" fill="none" id="Web-to-CtrlSol" style="stroke:#181818;stroke-width:1;"/><polygon fill="#181818" points="185.44,300.1669,194.7026,296.8196,189.0469,296.7042,189.1624,291.0485,185.44,300.1669" style="stroke:#181818;stroke-width:1;stroke-linejoin:miter;stroke-miterlimit:10;"/></g><!--link Web to CtrlAuth--><g class="link" data-entity-1="ent0002" data-entity-2="ent0005" data-link-type="dependency" data-source-line="34" id="lnk22"><path d="M317,225.7369 C317,246.4569 317,272.3769 317,295.2969" fill="none" id="Web-to-CtrlAuth" style="stroke:#181818;stroke-width:1;"/><polygon fill="#181818" points="317,300.2969,321,291.2969,317,295.2969,313,291.2969,317,300.2969" style="stroke:#181818;stroke-width:1;stroke-linejoin:miter;stroke-miterlimit:10;"/></g><!--link Web to CtrlCheck--><g class="link" data-entity-1="ent0002" data-entity-2="ent0006" data-link-type="dependency" data-source-line="35" id="lnk23"><path d="M354.29,225.6669 C368.93,234.9569 385.63,246.1669 400,257.3869 C416.81,270.5169 430.7031,283.0242 444.9531,296.7042" fill="none" id="Web-to-CtrlCheck" style="stroke:#181818;stroke-width:1;"/><polygon fill="#181818" points="448.56,300.1669,444.8376,291.0485,444.9531,296.7042,439.2974,296.8196,448.56,300.1669" style="stroke:#181818;stroke-width:1;stroke-linejoin:miter;stroke-miterlimit:10;"/></g><!--link CtrlSol to SvcSol--><g class="link" data-entity-1="ent0004" data-entity-2="ent0008" data-link-type="dependency" data-source-line="37" id="lnk24"><path d="M155,363.4569 C155,385.6469 155,410.4769 155,432.6369" fill="none" id="CtrlSol-to-SvcSol" style="stroke:#181818;stroke-width:1;"/><polygon fill="#181818" points="155,437.6369,159,428.6369,155,432.6369,151,428.6369,155,437.6369" style="stroke:#181818;stroke-width:1;stroke-linejoin:miter;stroke-miterlimit:10;"/></g><!--link CtrlAuth to SvcAuth--><g class="link" data-entity-1="ent0005" data-entity-2="ent0009" data-link-type="dependency" data-source-line="38" id="lnk25"><path d="M317,363.4569 C317,385.6469 317,410.4769 317,432.6369" fill="none" id="CtrlAuth-to-SvcAuth" style="stroke:#181818;stroke-width:1;"/><polygon fill="#181818" points="317,437.6369,321,428.6369,317,432.6369,313,428.6369,317,437.6369" style="stroke:#181818;stroke-width:1;stroke-linejoin:miter;stroke-miterlimit:10;"/></g><!--link CtrlCheck to SvcCheck--><g class="link" data-entity-1="ent0006" data-entity-2="ent0010" data-link-type="dependency" data-source-line="39" id="lnk26"><path d="M476.5,363.4569 C474.7,385.6469 472.6826,410.4931 470.8926,432.6531" fill="none" id="CtrlCheck-to-SvcCheck" style="stroke:#181818;stroke-width:1;"/><polygon fill="#181818" points="470.49,437.6369,475.2016,428.9881,470.8926,432.6531,467.2276,428.344,470.49,437.6369" style="stroke:#181818;stroke-width:1;stroke-linejoin:miter;stroke-miterlimit:10;"/></g><!--link SvcSol to DB--><g class="link" data-entity-1="ent0008" data-entity-2="ent0015" data-link-type="dependency" data-source-line="41" id="lnk27"><path d="M216.98,496.0969 C222.67,497.8369 228.4,499.3769 234,500.5769 C364.57,528.6069 406.74,477.0769 534,517.5769 C562.66,526.7069 587.2895,541.5654 609.0795,557.3354" fill="none" id="SvcSol-to-DB" style="stroke:#181818;stroke-width:1;"/><polygon fill="#181818" points="613.13,560.2669,608.1843,551.7499,609.0795,557.3354,603.4939,558.2307,613.13,560.2669" style="stroke:#181818;stroke-width:1;stroke-linejoin:miter;stroke-miterlimit:10;"/></g><!--link SvcAuth to DB--><g class="link" data-entity-1="ent0009" data-entity-2="ent0015" data-link-type="dependency" data-source-line="42" id="lnk28"><path d="M383.19,495.9269 C388.83,497.6569 394.48,499.2369 400,500.5769 C458.34,514.7369 477.46,497.3969 534,517.5769 C561.77,527.4969 585.7745,541.9144 607.4745,557.2244" fill="none" id="SvcAuth-to-DB" style="stroke:#181818;stroke-width:1;"/><polygon fill="#181818" points="611.56,560.1069,606.512,551.65,607.4745,557.2244,601.9001,558.1869,611.56,560.1069" style="stroke:#181818;stroke-width:1;stroke-linejoin:miter;stroke-miterlimit:10;"/></g><!--link SvcCheck to DB--><g class="link" data-entity-1="ent0010" data-entity-2="ent0015" data-link-type="dependency" data-source-line="43" id="lnk29"><path d="M514.65,501.0269 C542.18,519.1669 572.7451,539.3055 600.2551,557.4355" fill="none" id="SvcCheck-to-DB" style="stroke:#181818;stroke-width:1;"/><polygon fill="#181818" points="604.43,560.1869,599.1163,551.8944,600.2551,557.4355,594.7141,558.5743,604.43,560.1869" style="stroke:#181818;stroke-width:1;stroke-linejoin:miter;stroke-miterlimit:10;"/></g><!--link SvcSol to SvcNotif--><g class="link" data-entity-1="ent0008" data-entity-2="ent0011" data-link-type="dependency" data-source-line="46" id="lnk30"><path d="M155.25,501.0269 C155.41,519.1669 155.5586,537.057 155.7086,555.187" fill="none" id="SvcSol-to-SvcNotif" style="stroke:#181818;stroke-width:1;"/><polygon fill="#181818" points="155.75,560.1869,159.6754,551.1541,155.7086,555.187,151.6757,551.2203,155.75,560.1869" style="stroke:#181818;stroke-width:1;stroke-linejoin:miter;stroke-miterlimit:10;"/></g><!--link SvcSol to SvcGrupo--><g class="link" data-entity-1="ent0008" data-entity-2="ent0012" data-link-type="dependency" data-source-line="47" id="lnk31"><path d="M212.77,500.8669 C220.86,506.0369 228.85,511.6669 236,517.5769 C251.1,530.0669 262.5029,542.4097 273.9029,556.4097" fill="none" id="SvcSol-to-SvcGrupo" style="stroke:#181818;stroke-width:1;"/><polygon fill="#181818" points="277.06,560.2869,274.4789,550.7822,273.9029,556.4097,268.2754,555.8337,277.06,560.2869" style="stroke:#181818;stroke-width:1;stroke-linejoin:miter;stroke-miterlimit:10;"/></g><!--link SvcSol to SvcDoc--><g class="link" data-entity-1="ent0008" data-entity-2="ent0013" data-link-type="dependency" data-source-line="48" id="lnk32"><path d="M216.65,495.5069 C222.46,497.3969 228.3,499.1369 234,500.5769 C290.05,514.8069 310.44,493.4569 363,517.5769 C384.52,527.4569 400.9677,541.3496 415.7777,556.7796" fill="none" id="SvcSol-to-SvcDoc" style="stroke:#181818;stroke-width:1;"/><polygon fill="#181818" points="419.24,560.3869,415.8936,551.1239,415.7777,556.7796,410.122,556.6637,419.24,560.3869" style="stroke:#181818;stroke-width:1;stroke-linejoin:miter;stroke-miterlimit:10;"/></g><!--link SvcNotif to Email--><g class="link" data-entity-1="ent0011" data-entity-2="ent0017" data-link-type="dependency" data-source-line="50" id="lnk33"><path d="M134.67,623.6469 C117.34,648.6469 96.1289,679.2379 80.5289,701.7379" fill="none" id="SvcNotif-to-Email" style="stroke:#181818;stroke-width:1;"/><polygon fill="#181818" points="77.68,705.8469,86.0952,700.7298,80.5289,701.7379,79.5208,696.1716,77.68,705.8469" style="stroke:#181818;stroke-width:1;stroke-linejoin:miter;stroke-miterlimit:10;"/></g><!--link SvcNotif to Zap--><g class="link" data-entity-1="ent0011" data-entity-2="ent0018" data-link-type="dependency" data-source-line="51" id="lnk34"><path d="M191.81,623.4669 C203.2,633.4169 215.76,644.6269 227,655.1769 C241.53,668.8169 253.6841,680.842 266.7541,694.132" fill="none" id="SvcNotif-to-Zap" style="stroke:#181818;stroke-width:1;"/><polygon fill="#181818" points="270.26,697.6969,266.8013,688.4753,266.7541,694.132,261.0974,694.0847,270.26,697.6969" style="stroke:#181818;stroke-width:1;stroke-linejoin:miter;stroke-miterlimit:10;"/></g><!--link SvcNotif to Push--><g class="link" data-entity-1="ent0011" data-entity-2="ent0020" data-link-type="dependency" data-source-line="52" id="lnk35"><path d="M159.86,623.6469 C162.99,648.6469 166.7182,678.3857 169.5382,700.8857" fill="none" id="SvcNotif-to-Push" style="stroke:#181818;stroke-width:1;"/><polygon fill="#181818" points="170.16,705.8469,173.0097,696.4193,169.5382,700.8857,165.0718,697.4142,170.16,705.8469" style="stroke:#181818;stroke-width:1;stroke-linejoin:miter;stroke-miterlimit:10;"/></g><!--link SvcGrupo to Zap--><g class="link" data-entity-1="ent0012" data-entity-2="ent0018" data-link-type="dependency" data-source-line="53" id="lnk36"><path d="M300,623.6469 C300,645.8369 300,670.6569 300,692.8269" fill="none" id="SvcGrupo-to-Zap" style="stroke:#181818;stroke-width:1;"/><polygon fill="#181818" points="300,697.8269,304,688.8269,300,692.8269,296,688.8269,300,697.8269" style="stroke:#181818;stroke-width:1;stroke-linejoin:miter;stroke-miterlimit:10;"/></g><!--link SvcDoc to Storage--><g class="link" data-entity-1="ent0013" data-entity-2="ent0019" data-link-type="dependency" data-source-line="54" id="lnk37"><path d="M443.41,623.6469 C442.27,645.8369 440.989,670.6636 439.839,692.8336" fill="none" id="SvcDoc-to-Storage" style="stroke:#181818;stroke-width:1;"/><polygon fill="#181818" points="439.58,697.8269,444.0408,689.0462,439.839,692.8336,436.0516,688.6317,439.58,697.8269" style="stroke:#181818;stroke-width:1;stroke-linejoin:miter;stroke-miterlimit:10;"/></g><!--link Aluno to Web--><g class="link" data-entity-1="ent0038" data-entity-2="ent0002" data-link-type="dependency" data-source-line="60" id="lnk41"><path d="M250.18,109.6169 C265.54,130.6769 283.464,155.2569 297.764,174.8669" fill="none" id="Aluno-to-Web" style="stroke:#181818;stroke-width:1;"/><polygon fill="#181818" points="300.71,178.9069,298.6391,169.2782,297.764,174.8669,292.1753,173.9918,300.71,178.9069" style="stroke:#181818;stroke-width:1;stroke-linejoin:miter;stroke-miterlimit:10;"/></g><!--link Professor to Web--><g class="link" data-entity-1="ent0039" data-entity-2="ent0002" data-link-type="dependency" data-source-line="61" id="lnk42"><path d="M317,119.3669 C317,138.9069 317,157.1669 317,173.8869" fill="none" id="Professor-to-Web" style="stroke:#181818;stroke-width:1;"/><polygon fill="#181818" points="317,178.8869,321,169.8869,317,173.8869,313,169.8869,317,178.8869" style="stroke:#181818;stroke-width:1;stroke-linejoin:miter;stroke-miterlimit:10;"/></g><!--link Secretaria to Web--><g class="link" data-entity-1="ent0040" data-entity-2="ent0002" data-link-type="dependency" data-source-line="62" id="lnk43"><path d="M388.38,119.3669 C371.34,138.9069 354.3561,158.3984 339.7761,175.1184" fill="none" id="Secretaria-to-Web" style="stroke:#181818;stroke-width:1;"/><polygon fill="#181818" points="336.49,178.8869,345.4198,174.7326,339.7761,175.1184,339.3903,169.4747,336.49,178.8869" style="stroke:#181818;stroke-width:1;stroke-linejoin:miter;stroke-miterlimit:10;"/></g><?plantuml-src VPJVRjiW5CRl_HH7kTekyWgJABOgIwiJnLKxJRrXc2HeDbY0gqdJtdt7W8bTnxqAVFpE1-TFxAHh1UIINGph63G2gEvwhOHomaAl3L3K6sPX3o_2MAQ1SDQ8JdAMPKPmnzG57NQKF96SG5u0EPwAkgYU2IM77M0awOsmQCWuHiFV381FTy2kn8lCcN41h-ANn_4t-xVf_Rsaep5yeLeveziM7_KrNjFYe-xT4L7MQFEcQesOnCTeONqSTQP5yPCGCZWKWtaAGV7wIGoz2lvxBrNYlR2PM5Ky7cY9QTN2l4ikOawLk6Wkrna5Ij_9fdxdgsGIlKe4wNKU2L_aW6X8uJvRQIVFe_Fi8LxRu1_DqEj4-jq6cMi-T2ZTQ5Gs2vcJ_51xCCT6s5Nb7fZYUfnpV_ocJg9bM675sX3qyC6vBaul9JtKKFnuBavLz2x-uDIgTL-AZibWv5VBmzShSvRqFVRXM7he9-i_Z52hXmQxwhHX5n7o3UibTnpirP-EY_75-AU1_VvR6kRvtdTuBeG-Pf7rSXoR2Pyq7vf29ZN6XnWlOjaYFTlUOd2_mDDiBBKm1Kjjx7KsyLuCbLr8OnqNWY_Bv3X7q2uunwfcZECAI3ie7TT7ey_2MctYlXRS2CUCn0-Uvxp1-9LAP59kx2Jz1m00?></g></svg>