<svg xmlns="http://www.w3.org/2000/svg" xmlns:xlink="http://www.w3.org/1999/xlink" contentStyleType="text/css" data-diagram-type="ACTIVITY" height="1196px" preserveAspectRatio="none" style="width:2230px;height:1196px;background:#FFFFFF;" version="1.1" viewBox="0 0 2230 1196" width="2230px" zoomAndPan="magnify"><?plantuml 1.2026.7beta1?><defs/><g><rect fill="none" height="20.9531" style="stroke:none;stroke-width:1;" width="2183.5662" x="20" y="17.7451"/><ellipse cx="426.7471" cy="53.6982" fill="#222222" rx="10" ry="10" style="stroke:#222222;stroke-width:1;"/><rect fill="#F1F1F1" height="33.9688" rx="12.5" ry="12.5" style="stroke:#181818;stroke-width:0.5;" width="117.7637" x="367.8652" y="83.6982"/><text fill="#000000" font-family="sans-serif" font-size="12" lengthAdjust="spacing" textLength="97.7637" x="377.8652" y="104.8369">Acessar sistema</text><rect fill="#F1F1F1" height="33.9688" rx="12.5" ry="12.5" style="stroke:#181818;stroke-width:0.5;" width="116.3867" x="207.6641" y="235.6357"/><text fill="#000000" font-family="sans-serif" font-size="12" lengthAdjust="spacing" textLength="96.3867" x="217.6641" y="256.7744">Abrir solicita&#231;&#227;o</text><rect fill="#F1F1F1" height="33.9688" rx="12.5" ry="12.5" style="stroke:#181818;stroke-width:0.5;" width="184.0156" x="173.8496" y="289.6045"/><text fill="#000000" font-family="sans-serif" font-size="12" lengthAdjust="spacing" textLength="164.0156" x="183.8496" y="310.7432">Escolher tipo de solicita&#231;&#227;o</text><rect fill="#F1F1F1" height="33.9688" rx="12.5" ry="12.5" style="stroke:#181818;stroke-width:0.5;" width="134.2871" x="198.7139" y="391.9756"/><text fill="#000000" font-family="sans-serif" font-size="12" lengthAdjust="spacing" textLength="114.2871" x="208.7139" y="413.1143">Anexar documento</text><rect fill="#F1F1F1" height="33.9688" rx="12.5" ry="12.5" style="stroke:#181818;stroke-width:0.5;" width="125.2695" x="203.2227" y="489.9443"/><text fill="#000000" font-family="sans-serif" font-size="12" lengthAdjust="spacing" textLength="105.2695" x="213.2227" y="511.083">Enviar solicita&#231;&#227;o</text><rect fill="#F1F1F1" height="33.9688" rx="12.5" ry="12.5" style="stroke:#181818;stroke-width:0.5;" width="137.8496" x="26" y="1067.7256"/><text fill="#000000" font-family="sans-serif" font-size="12" lengthAdjust="spacing" textLength="117.8496" x="36" y="1088.8643">Consultar resultado</text><ellipse cx="94.9248" cy="1132.6943" fill="none" rx="11" ry="11" style="stroke:#222222;stroke-width:1;"/><ellipse cx="94.9248" cy="1132.6943" fill="#222222" rx="6" ry="6" style="stroke:#222222;stroke-width:1;"/><line style="stroke:#000000;stroke-width:1.5;" x1="20" x2="20" y1="17.7451" y2="1175.6943"/><rect fill="#F1F1F1" height="33.9688" rx="12.5" ry="12.5" style="stroke:#181818;stroke-width:0.5;" width="130.6719" x="1045.9136" y="137.667"/><text fill="#000000" font-family="sans-serif" font-size="12" lengthAdjust="spacing" textLength="110.6719" x="1055.9136" y="158.8057">Autenticar usu&#225;rio</text><polygon fill="#F1F1F1" points="1069.1428,191.6357,1153.3562,191.6357,1165.3562,203.6357,1153.3562,215.6357,1069.1428,215.6357,1057.1428,203.6357,1069.1428,191.6357" style="stroke:#181818;stroke-width:0.5;stroke-linejoin:miter;stroke-miterlimit:10;"/><text fill="#000000" font-family="sans-serif" font-size="11" lengthAdjust="spacing" textLength="84.2134" x="1069.1428" y="207.4438">Usu&#225;rio v&#225;lido?</text><text fill="#000000" font-family="sans-serif" font-size="11" lengthAdjust="spacing" textLength="20.7539" x="1036.3889" y="201.0415">Sim</text><text fill="#000000" font-family="sans-serif" font-size="11" lengthAdjust="spacing" textLength="21.6992" x="1165.3562" y="201.0415">N&#227;o</text><polygon fill="#F1F1F1" points="847.9109,343.5732,949.7415,343.5732,961.7415,355.5732,949.7415,367.5732,847.9109,367.5732,835.9109,355.5732,847.9109,343.5732" style="stroke:#181818;stroke-width:0.5;stroke-linejoin:miter;stroke-miterlimit:10;"/><text fill="#000000" font-family="sans-serif" font-size="11" lengthAdjust="spacing" textLength="20.7539" x="902.8262" y="377.7837">Sim</text><text fill="#000000" font-family="sans-serif" font-size="11" lengthAdjust="spacing" textLength="101.8306" x="847.9109" y="359.3813">Exige documento?</text><text fill="#000000" font-family="sans-serif" font-size="11" lengthAdjust="spacing" textLength="21.6992" x="961.7415" y="352.979">N&#227;o</text><polygon fill="#F1F1F1" points="898.8262,445.9443,910.8262,457.9443,898.8262,469.9443,886.8262,457.9443,898.8262,445.9443" style="stroke:#181818;stroke-width:0.5;stroke-linejoin:miter;stroke-miterlimit:10;"/><rect fill="#F1F1F1" height="33.9688" rx="12.5" ry="12.5" style="stroke:#181818;stroke-width:0.5;" width="142.209" x="827.7217" y="543.9131"/><text fill="#000000" font-family="sans-serif" font-size="12" lengthAdjust="spacing" textLength="122.209" x="837.7217" y="565.0518">Registrar solicita&#231;&#227;o</text><rect fill="#F1F1F1" height="33.9688" rx="12.5" ry="12.5" style="stroke:#181818;stroke-width:0.5;" width="206.2285" x="495.6289" y="925.7881"/><text fill="#000000" font-family="sans-serif" font-size="12" lengthAdjust="spacing" textLength="186.2285" x="505.6289" y="946.9268">Atualizar status para Aprovada</text><rect fill="#F1F1F1" height="33.9688" rx="12.5" ry="12.5" style="stroke:#181818;stroke-width:0.5;" width="213.7402" x="721.8574" y="925.7881"/><text fill="#000000" font-family="sans-serif" font-size="12" lengthAdjust="spacing" textLength="193.7402" x="731.8574" y="946.9268">Atualizar status para Reprovada</text><rect fill="#F1F1F1" height="33.9688" rx="12.5" ry="12.5" style="stroke:#181818;stroke-width:0.5;" width="107.8555" x="659.8076" y="1013.7568"/><text fill="#000000" font-family="sans-serif" font-size="12" lengthAdjust="spacing" textLength="87.8555" x="669.8076" y="1034.8955">Notificar aluno</text><rect fill="#F1F1F1" height="33.9688" rx="12.5" ry="12.5" style="stroke:#181818;stroke-width:0.5;" width="236.6387" x="965.5977" y="695.8506"/><text fill="#000000" font-family="sans-serif" font-size="12" lengthAdjust="spacing" textLength="216.6387" x="975.5977" y="716.9893">Solicitar corre&#231;&#227;o da documenta&#231;&#227;o</text><rect fill="#F1F1F1" height="33.9688" rx="12.5" ry="12.5" style="stroke:#181818;stroke-width:0.5;" width="107.8555" x="1029.9893" y="749.8193"/><text fill="#000000" font-family="sans-serif" font-size="12" lengthAdjust="spacing" textLength="87.8555" x="1039.9893" y="770.958">Notificar aluno</text><ellipse cx="1083.917" cy="829.7881" fill="none" rx="11" ry="11" style="stroke:#222222;stroke-width:1;"/><ellipse cx="1083.917" cy="829.7881" fill="#222222" rx="6" ry="6" style="stroke:#222222;stroke-width:1;"/><rect fill="#F1F1F1" height="33.9688" rx="12.5" ry="12.5" style="stroke:#181818;stroke-width:0.5;" width="182.873" x="1212.2363" y="235.6357"/><text fill="#000000" font-family="sans-serif" font-size="12" lengthAdjust="spacing" textLength="162.873" x="1222.2363" y="256.7744">Exibir erro de autentica&#231;&#227;o</text><ellipse cx="1303.6729" cy="300.6045" fill="none" rx="11" ry="11" style="stroke:#222222;stroke-width:1;"/><ellipse cx="1303.6729" cy="300.6045" fill="#222222" rx="6" ry="6" style="stroke:#222222;stroke-width:1;"/><line style="stroke:#000000;stroke-width:1.5;" x1="489.6289" x2="489.6289" y1="17.7451" y2="1175.6943"/><rect fill="#F1F1F1" height="33.9688" rx="12.5" ry="12.5" style="stroke:#181818;stroke-width:0.5;" width="155.1406" x="1614.6189" y="597.8818"/><text fill="#000000" font-family="sans-serif" font-size="12" lengthAdjust="spacing" textLength="135.1406" x="1624.6189" y="619.0205">Validar documenta&#231;&#227;o</text><polygon fill="#F1F1F1" points="1629.3555,651.8506,1755.0229,651.8506,1767.0229,663.8506,1755.0229,675.8506,1629.3555,675.8506,1617.3555,663.8506,1629.3555,651.8506" style="stroke:#181818;stroke-width:0.5;stroke-linejoin:miter;stroke-miterlimit:10;"/><text fill="#000000" font-family="sans-serif" font-size="11" lengthAdjust="spacing" textLength="125.6675" x="1629.3555" y="667.6587">Documenta&#231;&#227;o v&#225;lida?</text><text fill="#000000" font-family="sans-serif" font-size="11" lengthAdjust="spacing" textLength="20.7539" x="1596.6016" y="661.2563">Sim</text><text fill="#000000" font-family="sans-serif" font-size="11" lengthAdjust="spacing" textLength="21.6992" x="1767.0229" y="661.2563">N&#227;o</text><rect fill="#F1F1F1" height="33.9688" rx="12.5" ry="12.5" style="stroke:#181818;stroke-width:0.5;" width="159.0195" x="1427.5886" y="695.8506"/><text fill="#000000" font-family="sans-serif" font-size="12" lengthAdjust="spacing" textLength="139.0195" x="1437.5886" y="716.9893">Encaminhar solicita&#231;&#227;o</text><polygon fill="#F1F1F1" points="1436.8633,749.8193,1577.3335,749.8193,1589.3335,761.8193,1577.3335,773.8193,1436.8633,773.8193,1424.8633,761.8193,1436.8633,749.8193" style="stroke:#181818;stroke-width:0.5;stroke-linejoin:miter;stroke-miterlimit:10;"/><text fill="#000000" font-family="sans-serif" font-size="11" lengthAdjust="spacing" textLength="140.4702" x="1436.8633" y="765.6274">Respons&#225;vel &#233; Professor?</text><text fill="#000000" font-family="sans-serif" font-size="11" lengthAdjust="spacing" textLength="20.7539" x="1404.1094" y="759.2251">Sim</text><text fill="#000000" font-family="sans-serif" font-size="11" lengthAdjust="spacing" textLength="21.6992" x="1589.3335" y="759.2251">N&#227;o</text><polygon fill="#F1F1F1" points="1507.0984,837.7881,1519.0984,849.7881,1507.0984,861.7881,1495.0984,849.7881,1507.0984,837.7881" style="stroke:#181818;stroke-width:0.5;stroke-linejoin:miter;stroke-miterlimit:10;"/><line style="stroke:#000000;stroke-width:1.5;" x1="1399.1094" x2="1399.1094" y1="17.7451" y2="1175.6943"/><rect fill="#F1F1F1" height="33.9688" rx="12.5" ry="12.5" style="stroke:#181818;stroke-width:0.5;" width="135.7344" x="1799.7222" y="793.8193"/><text fill="#000000" font-family="sans-serif" font-size="12" lengthAdjust="spacing" textLength="115.7344" x="1809.7222" y="814.958">Analisar solicita&#231;&#227;o</text><line style="stroke:#000000;stroke-width:1.5;" x1="1793.7222" x2="1793.7222" y1="17.7451" y2="1175.6943"/><rect fill="#F1F1F1" height="33.9688" rx="12.5" ry="12.5" style="stroke:#181818;stroke-width:0.5;" width="135.7344" x="2061.9709" y="793.8193"/><text fill="#000000" font-family="sans-serif" font-size="12" lengthAdjust="spacing" textLength="115.7344" x="2071.9709" y="814.958">Analisar solicita&#231;&#227;o</text><polygon fill="#F1F1F1" points="1977.2104,881.7881,2097.9956,881.7881,2109.9956,893.7881,2097.9956,905.7881,1977.2104,905.7881,1965.2104,893.7881,1977.2104,881.7881" style="stroke:#181818;stroke-width:0.5;stroke-linejoin:miter;stroke-miterlimit:10;"/><text fill="#000000" font-family="sans-serif" font-size="11" lengthAdjust="spacing" textLength="120.7852" x="1977.2104" y="897.5962">Solicita&#231;&#227;o aprovada?</text><text fill="#000000" font-family="sans-serif" font-size="11" lengthAdjust="spacing" textLength="20.7539" x="1944.4565" y="891.1938">Sim</text><text fill="#000000" font-family="sans-serif" font-size="11" lengthAdjust="spacing" textLength="21.6992" x="2109.9956" y="891.1938">N&#227;o</text><polygon fill="#F1F1F1" points="2037.603,969.7568,2049.603,981.7568,2037.603,993.7568,2025.603,981.7568,2037.603,969.7568" style="stroke:#181818;stroke-width:0.5;stroke-linejoin:miter;stroke-miterlimit:10;"/><line style="stroke:#000000;stroke-width:1.5;" x1="1939.4565" x2="1939.4565" y1="17.7451" y2="1175.6943"/><line style="stroke:#000000;stroke-width:1.5;" x1="2201.7053" x2="2201.7053" y1="17.7451" y2="1175.6943"/><line style="stroke:#181818;stroke-width:1;" x1="426.7471" x2="426.7471" y1="63.6982" y2="83.6982"/><polygon fill="#181818" points="422.7471,73.6982,426.7471,83.6982,430.7471,73.6982,426.7471,77.6982" style="stroke:#181818;stroke-width:1;stroke-linejoin:miter;stroke-miterlimit:10;"/><line style="stroke:#181818;stroke-width:1;" x1="265.8574" x2="265.8574" y1="269.6045" y2="289.6045"/><polygon fill="#181818" points="261.8574,279.6045,265.8574,289.6045,269.8574,279.6045,265.8574,283.6045" style="stroke:#181818;stroke-width:1;stroke-linejoin:miter;stroke-miterlimit:10;"/><line style="stroke:#181818;stroke-width:1;" x1="94.9248" x2="94.9248" y1="1101.6943" y2="1121.6943"/><polygon fill="#181818" points="90.9248,1111.6943,94.9248,1121.6943,98.9248,1111.6943,94.9248,1115.6943" style="stroke:#181818;stroke-width:1;stroke-linejoin:miter;stroke-miterlimit:10;"/><line style="stroke:#181818;stroke-width:1;" x1="961.7415" x2="975.9697" y1="355.5732" y2="355.5732"/><polygon fill="#181818" points="971.9697,398.96,975.9697,408.96,979.9697,398.96,975.9697,402.96" style="stroke:#181818;stroke-width:1;stroke-linejoin:miter;stroke-miterlimit:10;"/><line style="stroke:#181818;stroke-width:1;" x1="975.9697" x2="975.9697" y1="355.5732" y2="457.9443"/><line style="stroke:#181818;stroke-width:1;" x1="975.9697" x2="910.8262" y1="457.9443" y2="457.9443"/><polygon fill="#181818" points="920.8262,453.9443,910.8262,457.9443,920.8262,461.9443,916.8262,457.9443" style="stroke:#181818;stroke-width:1;stroke-linejoin:miter;stroke-miterlimit:10;"/><line style="stroke:#181818;stroke-width:1;" x1="1083.917" x2="1083.917" y1="729.8193" y2="749.8193"/><polygon fill="#181818" points="1079.917,739.8193,1083.917,749.8193,1087.917,739.8193,1083.917,743.8193" style="stroke:#181818;stroke-width:1;stroke-linejoin:miter;stroke-miterlimit:10;"/><line style="stroke:#181818;stroke-width:1;" x1="1083.917" x2="1083.917" y1="783.7881" y2="818.7881"/><polygon fill="#181818" points="1079.917,808.7881,1083.917,818.7881,1087.917,808.7881,1083.917,812.7881" style="stroke:#181818;stroke-width:1;stroke-linejoin:miter;stroke-miterlimit:10;"/><line style="stroke:#181818;stroke-width:1;" x1="1303.6729" x2="1303.6729" y1="269.6045" y2="289.6045"/><polygon fill="#181818" points="1299.6729,279.6045,1303.6729,289.6045,1307.6729,279.6045,1303.6729,283.6045" style="stroke:#181818;stroke-width:1;stroke-linejoin:miter;stroke-miterlimit:10;"/><line style="stroke:#181818;stroke-width:1;" x1="1165.3562" x2="1303.6729" y1="203.6357" y2="203.6357"/><line style="stroke:#181818;stroke-width:1;" x1="1303.6729" x2="1303.6729" y1="203.6357" y2="235.6357"/><polygon fill="#181818" points="1299.6729,225.6357,1303.6729,235.6357,1307.6729,225.6357,1303.6729,229.6357" style="stroke:#181818;stroke-width:1;stroke-linejoin:miter;stroke-miterlimit:10;"/><line style="stroke:#181818;stroke-width:1;" x1="1111.2495" x2="1111.2495" y1="171.6357" y2="191.6357"/><polygon fill="#181818" points="1107.2495,181.6357,1111.2495,191.6357,1115.2495,181.6357,1111.2495,185.6357" style="stroke:#181818;stroke-width:1;stroke-linejoin:miter;stroke-miterlimit:10;"/><line style="stroke:#181818;stroke-width:1;" x1="1507.0984" x2="1507.0984" y1="729.8193" y2="749.8193"/><polygon fill="#181818" points="1503.0984,739.8193,1507.0984,749.8193,1511.0984,739.8193,1507.0984,743.8193" style="stroke:#181818;stroke-width:1;stroke-linejoin:miter;stroke-miterlimit:10;"/><line style="stroke:#181818;stroke-width:1;" x1="1617.3555" x2="1507.0984" y1="663.8506" y2="663.8506"/><line style="stroke:#181818;stroke-width:1;" x1="1507.0984" x2="1507.0984" y1="663.8506" y2="695.8506"/><polygon fill="#181818" points="1503.0984,685.8506,1507.0984,695.8506,1511.0984,685.8506,1507.0984,689.8506" style="stroke:#181818;stroke-width:1;stroke-linejoin:miter;stroke-miterlimit:10;"/><line style="stroke:#181818;stroke-width:1;" x1="1692.1892" x2="1692.1892" y1="631.8506" y2="651.8506"/><polygon fill="#181818" points="1688.1892,641.8506,1692.1892,651.8506,1696.1892,641.8506,1692.1892,645.8506" style="stroke:#181818;stroke-width:1;stroke-linejoin:miter;stroke-miterlimit:10;"/><line style="stroke:#181818;stroke-width:1;" x1="426.7471" x2="426.7471" y1="117.667" y2="122.667"/><line style="stroke:#181818;stroke-width:1;" x1="426.7471" x2="1111.2495" y1="122.667" y2="122.667"/><line style="stroke:#181818;stroke-width:1;" x1="1111.2495" x2="1111.2495" y1="122.667" y2="137.667"/><polygon fill="#181818" points="1107.2495,127.667,1111.2495,137.667,1115.2495,127.667,1111.2495,131.667" style="stroke:#181818;stroke-width:1;stroke-linejoin:miter;stroke-miterlimit:10;"/><line style="stroke:#181818;stroke-width:1;" x1="898.8262" x2="898.8262" y1="367.5732" y2="379.7744"/><line style="stroke:#181818;stroke-width:1;" x1="898.8262" x2="265.8574" y1="379.7744" y2="379.7744"/><line style="stroke:#181818;stroke-width:1;" x1="265.8574" x2="265.8574" y1="379.7744" y2="391.9756"/><polygon fill="#181818" points="261.8574,381.9756,265.8574,391.9756,269.8574,381.9756,265.8574,385.9756" style="stroke:#181818;stroke-width:1;stroke-linejoin:miter;stroke-miterlimit:10;"/><line style="stroke:#181818;stroke-width:1;" x1="265.8574" x2="265.8574" y1="425.9443" y2="433.7432"/><line style="stroke:#181818;stroke-width:1;" x1="265.8574" x2="898.8262" y1="433.7432" y2="433.7432"/><line style="stroke:#181818;stroke-width:1;" x1="898.8262" x2="898.8262" y1="433.7432" y2="445.9443"/><polygon fill="#181818" points="894.8262,435.9443,898.8262,445.9443,902.8262,435.9443,898.8262,439.9443" style="stroke:#181818;stroke-width:1;stroke-linejoin:miter;stroke-miterlimit:10;"/><line style="stroke:#181818;stroke-width:1;" x1="265.8574" x2="265.8574" y1="323.5732" y2="328.5732"/><line style="stroke:#181818;stroke-width:1;" x1="265.8574" x2="898.8262" y1="328.5732" y2="328.5732"/><line style="stroke:#181818;stroke-width:1;" x1="898.8262" x2="898.8262" y1="328.5732" y2="343.5732"/><polygon fill="#181818" points="894.8262,333.5732,898.8262,343.5732,902.8262,333.5732,898.8262,337.5732" style="stroke:#181818;stroke-width:1;stroke-linejoin:miter;stroke-miterlimit:10;"/><line style="stroke:#181818;stroke-width:1;" x1="898.8262" x2="898.8262" y1="469.9443" y2="474.9443"/><line style="stroke:#181818;stroke-width:1;" x1="898.8262" x2="265.8574" y1="474.9443" y2="474.9443"/><line style="stroke:#181818;stroke-width:1;" x1="265.8574" x2="265.8574" y1="474.9443" y2="489.9443"/><polygon fill="#181818" points="261.8574,479.9443,265.8574,489.9443,269.8574,479.9443,265.8574,483.9443" style="stroke:#181818;stroke-width:1;stroke-linejoin:miter;stroke-miterlimit:10;"/><line style="stroke:#181818;stroke-width:1;" x1="265.8574" x2="265.8574" y1="523.9131" y2="528.9131"/><line style="stroke:#181818;stroke-width:1;" x1="265.8574" x2="898.8262" y1="528.9131" y2="528.9131"/><line style="stroke:#181818;stroke-width:1;" x1="898.8262" x2="898.8262" y1="528.9131" y2="543.9131"/><polygon fill="#181818" points="894.8262,533.9131,898.8262,543.9131,902.8262,533.9131,898.8262,537.9131" style="stroke:#181818;stroke-width:1;stroke-linejoin:miter;stroke-miterlimit:10;"/><line style="stroke:#181818;stroke-width:1;" x1="898.8262" x2="898.8262" y1="577.8818" y2="582.8818"/><line style="stroke:#181818;stroke-width:1;" x1="898.8262" x2="1692.1892" y1="582.8818" y2="582.8818"/><line style="stroke:#181818;stroke-width:1;" x1="1692.1892" x2="1692.1892" y1="582.8818" y2="597.8818"/><polygon fill="#181818" points="1688.1892,587.8818,1692.1892,597.8818,1696.1892,587.8818,1692.1892,591.8818" style="stroke:#181818;stroke-width:1;stroke-linejoin:miter;stroke-miterlimit:10;"/><line style="stroke:#181818;stroke-width:1;" x1="1424.8633" x2="1412.8633" y1="761.8193" y2="761.8193"/><line style="stroke:#181818;stroke-width:1;" x1="1412.8633" x2="1412.8633" y1="761.8193" y2="779.8193"/><line style="stroke:#181818;stroke-width:1;" x1="1412.8633" x2="1867.5894" y1="779.8193" y2="779.8193"/><line style="stroke:#181818;stroke-width:1;" x1="1867.5894" x2="1867.5894" y1="779.8193" y2="793.8193"/><polygon fill="#181818" points="1863.5894,783.8193,1867.5894,793.8193,1871.5894,783.8193,1867.5894,787.8193" style="stroke:#181818;stroke-width:1;stroke-linejoin:miter;stroke-miterlimit:10;"/><line style="stroke:#181818;stroke-width:1;" x1="1589.3335" x2="2129.8381" y1="761.8193" y2="761.8193"/><line style="stroke:#181818;stroke-width:1;" x1="2129.8381" x2="2129.8381" y1="761.8193" y2="793.8193"/><polygon fill="#181818" points="2125.8381,783.8193,2129.8381,793.8193,2133.8381,783.8193,2129.8381,787.8193" style="stroke:#181818;stroke-width:1;stroke-linejoin:miter;stroke-miterlimit:10;"/><line style="stroke:#181818;stroke-width:1;" x1="1867.5894" x2="1867.5894" y1="827.7881" y2="831.7881"/><line style="stroke:#181818;stroke-width:1;" x1="1867.5894" x2="1477.0984" y1="831.7881" y2="831.7881"/><line style="stroke:#181818;stroke-width:1;" x1="1477.0984" x2="1477.0984" y1="831.7881" y2="849.7881"/><line style="stroke:#181818;stroke-width:1;" x1="1477.0984" x2="1495.0984" y1="849.7881" y2="849.7881"/><polygon fill="#181818" points="1485.0984,845.7881,1495.0984,849.7881,1485.0984,853.7881,1489.0984,849.7881" style="stroke:#181818;stroke-width:1;stroke-linejoin:miter;stroke-miterlimit:10;"/><line style="stroke:#181818;stroke-width:1;" x1="2129.8381" x2="2129.8381" y1="827.7881" y2="849.7881"/><line style="stroke:#181818;stroke-width:1;" x1="2129.8381" x2="1519.0984" y1="849.7881" y2="849.7881"/><polygon fill="#181818" points="1529.0984,845.7881,1519.0984,849.7881,1529.0984,853.7881,1525.0984,849.7881" style="stroke:#181818;stroke-width:1;stroke-linejoin:miter;stroke-miterlimit:10;"/><line style="stroke:#181818;stroke-width:1;" x1="1965.2104" x2="598.7432" y1="893.7881" y2="893.7881"/><line style="stroke:#181818;stroke-width:1;" x1="598.7432" x2="598.7432" y1="893.7881" y2="925.7881"/><polygon fill="#181818" points="594.7432,915.7881,598.7432,925.7881,602.7432,915.7881,598.7432,919.7881" style="stroke:#181818;stroke-width:1;stroke-linejoin:miter;stroke-miterlimit:10;"/><line style="stroke:#181818;stroke-width:1;" x1="2109.9956" x2="2121.9956" y1="893.7881" y2="893.7881"/><line style="stroke:#181818;stroke-width:1;" x1="2121.9956" x2="2121.9956" y1="893.7881" y2="911.7881"/><line style="stroke:#181818;stroke-width:1;" x1="2121.9956" x2="828.7275" y1="911.7881" y2="911.7881"/><line style="stroke:#181818;stroke-width:1;" x1="828.7275" x2="828.7275" y1="911.7881" y2="925.7881"/><polygon fill="#181818" points="824.7275,915.7881,828.7275,925.7881,832.7275,915.7881,828.7275,919.7881" style="stroke:#181818;stroke-width:1;stroke-linejoin:miter;stroke-miterlimit:10;"/><line style="stroke:#181818;stroke-width:1;" x1="598.7432" x2="598.7432" y1="959.7568" y2="981.7568"/><line style="stroke:#181818;stroke-width:1;" x1="598.7432" x2="2025.603" y1="981.7568" y2="981.7568"/><polygon fill="#181818" points="2015.603,977.7568,2025.603,981.7568,2015.603,985.7568,2019.603,981.7568" style="stroke:#181818;stroke-width:1;stroke-linejoin:miter;stroke-miterlimit:10;"/><line style="stroke:#181818;stroke-width:1;" x1="828.7275" x2="828.7275" y1="959.7568" y2="963.7568"/><line style="stroke:#181818;stroke-width:1;" x1="828.7275" x2="2067.603" y1="963.7568" y2="963.7568"/><line style="stroke:#181818;stroke-width:1;" x1="2067.603" x2="2067.603" y1="963.7568" y2="981.7568"/><line style="stroke:#181818;stroke-width:1;" x1="2067.603" x2="2049.603" y1="981.7568" y2="981.7568"/><polygon fill="#181818" points="2059.603,977.7568,2049.603,981.7568,2059.603,985.7568,2055.603,981.7568" style="stroke:#181818;stroke-width:1;stroke-linejoin:miter;stroke-miterlimit:10;"/><line style="stroke:#181818;stroke-width:1;" x1="1507.0984" x2="1507.0984" y1="861.7881" y2="866.7881"/><line style="stroke:#181818;stroke-width:1;" x1="1507.0984" x2="2037.603" y1="866.7881" y2="866.7881"/><line style="stroke:#181818;stroke-width:1;" x1="2037.603" x2="2037.603" y1="866.7881" y2="881.7881"/><polygon fill="#181818" points="2033.603,871.7881,2037.603,881.7881,2041.603,871.7881,2037.603,875.7881" style="stroke:#181818;stroke-width:1;stroke-linejoin:miter;stroke-miterlimit:10;"/><line style="stroke:#181818;stroke-width:1;" x1="2037.603" x2="2037.603" y1="993.7568" y2="998.7568"/><line style="stroke:#181818;stroke-width:1;" x1="2037.603" x2="713.7354" y1="998.7568" y2="998.7568"/><line style="stroke:#181818;stroke-width:1;" x1="713.7354" x2="713.7354" y1="998.7568" y2="1013.7568"/><polygon fill="#181818" points="709.7354,1003.7568,713.7354,1013.7568,717.7354,1003.7568,713.7354,1007.7568" style="stroke:#181818;stroke-width:1;stroke-linejoin:miter;stroke-miterlimit:10;"/><line style="stroke:#181818;stroke-width:1;" x1="713.7354" x2="713.7354" y1="1047.7256" y2="1052.7256"/><line style="stroke:#181818;stroke-width:1;" x1="713.7354" x2="94.9248" y1="1052.7256" y2="1052.7256"/><line style="stroke:#181818;stroke-width:1;" x1="94.9248" x2="94.9248" y1="1052.7256" y2="1067.7256"/><polygon fill="#181818" points="90.9248,1057.7256,94.9248,1067.7256,98.9248,1057.7256,94.9248,1061.7256" style="stroke:#181818;stroke-width:1;stroke-linejoin:miter;stroke-miterlimit:10;"/><line style="stroke:#181818;stroke-width:1;" x1="1767.0229" x2="1779.0229" y1="663.8506" y2="663.8506"/><line style="stroke:#181818;stroke-width:1;" x1="1779.0229" x2="1779.0229" y1="663.8506" y2="681.8506"/><line style="stroke:#181818;stroke-width:1;" x1="1779.0229" x2="1083.917" y1="681.8506" y2="681.8506"/><line style="stroke:#181818;stroke-width:1;" x1="1083.917" x2="1083.917" y1="681.8506" y2="695.8506"/><polygon fill="#181818" points="1079.917,685.8506,1083.917,695.8506,1087.917,685.8506,1083.917,689.8506" style="stroke:#181818;stroke-width:1;stroke-linejoin:miter;stroke-miterlimit:10;"/><line style="stroke:#181818;stroke-width:1;" x1="1057.1428" x2="265.8574" y1="203.6357" y2="203.6357"/><line style="stroke:#181818;stroke-width:1;" x1="265.8574" x2="265.8574" y1="203.6357" y2="235.6357"/><polygon fill="#181818" points="261.8574,225.6357,265.8574,235.6357,269.8574,225.6357,265.8574,229.6357" style="stroke:#181818;stroke-width:1;stroke-linejoin:miter;stroke-miterlimit:10;"/><text fill="#000000" font-family="sans-serif" font-size="18" lengthAdjust="spacing" textLength="51.1436" x="229.2427" y="34.4531">Aluno</text><text fill="#000000" font-family="sans-serif" font-size="18" lengthAdjust="spacing" textLength="72.501" x="908.1187" y="34.4531">Sistema</text><text fill="#000000" font-family="sans-serif" font-size="18" lengthAdjust="spacing" textLength="92.3906" x="1550.2205" y="34.4531">Secretaria</text><text fill="#000000" font-family="sans-serif" font-size="18" lengthAdjust="spacing" textLength="83.8477" x="1824.6655" y="34.4531">Professor</text><text fill="#000000" font-family="sans-serif" font-size="18" lengthAdjust="spacing" textLength="118.8721" x="2011.1449" y="34.4531">Coordena&#231;&#227;o</text><?plantuml-src bLJDRi8m3BxtANo4LoY7gM9SqGJQxg5r8LARL4vIeQalWtQOzXnziRc_j9GYw2cfdU_7Tb84YLEwy8mLP3tF3q8qHX0OQIocOkLvnRvP5Xnq5fML8SUTSUM5fEO46SFYizr2NbuI6Uct9TWJAbZiPRhqFE2lQ9cgjHySI3A9JcGehIX_onz6gYCR4-haX0HMPXeYl4rgi7fDrQuIi3dB8qAaGvUon7lyjneQ7GhFxAO_r-9ZOX0MMoPi3wEAP7p7nqRbKj0J6lqT7dbFiyaO4d8FP9V_9RYE0scZzChn-oZG5bxC66UXeKYbEitmTw0xD9bMfhpac43v1n-aOnu8JJEujVO-gHZzv-Ao1_E0SLBc7dAjDKMecXClmrwRrVdQ3rD1PAHpCLkiQVUktDOn-NT5ReLr1Z910e8Mxobhhm3ly0xos9s_rLR6zPqKrM2k7apxcblh4fuo8AmNqJ3TM9tDZFzzuNvNLO9G4s5Jt4XCPlO9hGFonjz4myrzuWj_u2S4YUfNGdHFqt0O6j0Qy1y0?></g></svg>